<svg id="Capa_1" data-name="Capa 1" xmlns="http://www.w3.org/2000/svg" xmlns:xlink="http://www.w3.org/1999/xlink" viewBox="0 0 340.09 379.91"><defs><style>.cls-1{fill:url(#Degradado_sin_nombre_6);}.cls-2{fill:url(#Degradado_sin_nombre_6-2);}.cls-3{fill:url(#Degradado_sin_nombre_6-3);}.cls-4{fill:url(#Degradado_sin_nombre_6-4);}.cls-5{fill:url(#Degradado_sin_nombre_6-5);}.cls-6{fill:url(#Degradado_sin_nombre_6-6);}.cls-7{fill:url(#Degradado_sin_nombre_6-7);}.cls-8{fill:url(#Degradado_sin_nombre_6-8);}.cls-9{fill:url(#Degradado_sin_nombre_6-9);}.cls-10{fill:url(#Degradado_sin_nombre_6-10);}.cls-11{fill:url(#Degradado_sin_nombre_6-11);}.cls-12{fill:url(#Degradado_sin_nombre_6-12);}</style><linearGradient id="Degradado_sin_nombre_6" x1="90.89" y1="187.85" x2="240.41" y2="187.85" gradientUnits="userSpaceOnUse"><stop offset="0" stop-color="#009f95"/><stop offset="1" stop-color="#00656e"/></linearGradient><linearGradient id="Degradado_sin_nombre_6-2" x1="143.66" y1="335.55" x2="187.57" y2="335.55" xlink:href="#Degradado_sin_nombre_6"/><linearGradient id="Degradado_sin_nombre_6-3" x1="128.91" y1="295.36" x2="202.74" y2="295.36" xlink:href="#Degradado_sin_nombre_6"/><linearGradient id="Degradado_sin_nombre_6-4" x1="134.14" y1="313.79" x2="197.99" y2="313.79" xlink:href="#Degradado_sin_nombre_6"/><linearGradient id="Degradado_sin_nombre_6-5" x1="73.69" y1="248.75" x2="99.12" y2="248.75" gradientTransform="translate(192.61 7.79) rotate(42.94)" xlink:href="#Degradado_sin_nombre_6"/><linearGradient id="Degradado_sin_nombre_6-6" x1="48.48" y1="164.5" x2="80.58" y2="164.5" xlink:href="#Degradado_sin_nombre_6"/><linearGradient id="Degradado_sin_nombre_6-7" x1="162.29" y1="60.67" x2="169.5" y2="60.67" gradientTransform="translate(226.57 -105.22) rotate(90)" xlink:href="#Degradado_sin_nombre_6"/><linearGradient id="Degradado_sin_nombre_6-8" x1="259.5" y1="164.5" x2="291.61" y2="164.5" xlink:href="#Degradado_sin_nombre_6"/><linearGradient id="Degradado_sin_nombre_6-9" x1="234.81" y1="87.63" x2="260.24" y2="87.63" gradientTransform="translate(126.02 -145.14) rotate(42.94)" xlink:href="#Degradado_sin_nombre_6"/><linearGradient id="Degradado_sin_nombre_6-10" x1="233.86" y1="243.05" x2="258.03" y2="243.05" gradientTransform="translate(591.42 228.59) rotate(132.94)" xlink:href="#Degradado_sin_nombre_6"/><linearGradient id="Degradado_sin_nombre_6-11" x1="79.32" y1="88.57" x2="103.49" y2="88.57" gradientTransform="translate(218.51 82) rotate(132.94)" xlink:href="#Degradado_sin_nombre_6"/><linearGradient id="Degradado_sin_nombre_6-12" x1="113.51" y1="146.81" x2="151.71" y2="146.81" xlink:href="#Degradado_sin_nombre_6"/></defs><title>Iconos nuestros valores</title><path class="cls-1" d="M165.75,283h-24c-12.54,0-19.46-4.49-18.91-16.56,1.12-24.44-8.61-44-21.52-63.7C85,177.91,88.51,144.39,107.15,121c19.55-24.58,50.54-34.44,80.3-25.56C216.29,104,237.18,130,240,160.14c1.84,19.45-2.92,36.92-14.92,52.17-10.6,13.46-15.75,28.46-15.39,45.53a46.39,46.39,0,0,1-1.26,10.8c-2.18,9.91-6.74,16.3-18.7,14.59C181.9,282.11,173.76,283,165.75,283Zm-1-11c7.29,0,14.64-.6,21.86.15,9.05.94,12.22-4.09,11.92-11.39-1-23.07,8-41.93,20.92-60.57,17.48-25.32,11.14-60.83-12.16-81.2a62.5,62.5,0,0,0-82.16-.46c-24,20.45-30.61,54-13.42,79.82,13.32,20,23.53,40.06,21.78,64.8-.41,5.79,2.53,9.42,9.39,9C150.13,271.6,157.45,272,164.74,272Z"/><path class="cls-2" d="M187.57,329.61c-13.56,15.79-29,15.88-43.91,0Z"/><rect class="cls-3" x="128.91" y="289.76" width="73.83" height="11.2" rx="5.6"/><rect class="cls-4" x="134.14" y="308.18" width="63.85" height="11.2" rx="5.21"/><rect class="cls-5" x="70.36" y="245.14" width="32.1" height="7.22" rx="3.61" transform="translate(-146.31 125.51) rotate(-42.94)"/><rect class="cls-6" x="48.48" y="160.9" width="32.1" height="7.22" rx="3.61"/><rect class="cls-7" x="149.85" y="57.06" width="32.1" height="7.22" rx="3.61" transform="translate(105.22 226.57) rotate(-90)"/><rect class="cls-8" x="259.5" y="160.9" width="32.1" height="7.22" rx="3.61"/><rect class="cls-9" x="231.47" y="84.02" width="32.1" height="7.22" rx="3.61" transform="translate(6.62 192.1) rotate(-42.94)"/><rect class="cls-10" x="229.89" y="239.44" width="32.1" height="7.22" rx="3.61" transform="translate(235.56 588.67) rotate(-132.94)"/><rect class="cls-11" x="75.35" y="84.96" width="32.1" height="7.22" rx="3.61" transform="translate(88.83 215.83) rotate(-132.94)"/><path class="cls-12" d="M149.19,132.31A52.82,52.82,0,0,0,123.43,167a5,5,0,0,1-4.63,3.92h0a5.06,5.06,0,0,1-5.25-5.69,52.74,52.74,0,0,1,30.84-42.14,5.07,5.07,0,0,1,6,1.4l.21.25A5,5,0,0,1,149.19,132.31Z"/></svg>