<svg id="Capa_1" data-name="Capa 1" xmlns="http://www.w3.org/2000/svg" xmlns:xlink="http://www.w3.org/1999/xlink" viewBox="0 0 296.43 243.6"><defs><style>.cls-1,.cls-2,.cls-3,.cls-4,.cls-5,.cls-6{fill:#fff;stroke-miterlimit:10;stroke-width:9px;}.cls-1{stroke:url(#Degradado_sin_nombre_6);}.cls-2{stroke:url(#Degradado_sin_nombre_6-2);}.cls-3{stroke:url(#Degradado_sin_nombre_6-3);}.cls-4{stroke:url(#Degradado_sin_nombre_6-4);}.cls-5{stroke:url(#Degradado_sin_nombre_6-5);}.cls-6{stroke:url(#Degradado_sin_nombre_6-6);}</style><linearGradient id="Degradado_sin_nombre_6" y1="187.83" x2="114.65" y2="187.83" gradientUnits="userSpaceOnUse"><stop offset="0" stop-color="#009f95"/><stop offset="1" stop-color="#00656e"/></linearGradient><linearGradient id="Degradado_sin_nombre_6-2" x1="181.78" y1="187.83" x2="296.43" y2="187.83" xlink:href="#Degradado_sin_nombre_6"/><linearGradient id="Degradado_sin_nombre_6-3" x1="18.64" y1="83.74" x2="89.79" y2="83.74" xlink:href="#Degradado_sin_nombre_6"/><linearGradient id="Degradado_sin_nombre_6-4" x1="203.53" y1="85.29" x2="274.68" y2="85.29" xlink:href="#Degradado_sin_nombre_6"/><linearGradient id="Degradado_sin_nombre_6-5" x1="100.99" y1="49.56" x2="200.1" y2="49.56" xlink:href="#Degradado_sin_nombre_6"/><linearGradient id="Degradado_sin_nombre_6-6" x1="80.79" y1="175.4" x2="214.08" y2="175.4" xlink:href="#Degradado_sin_nombre_6"/></defs><title>Iconos nuestros valores_ Trabajo en equipo</title><path class="cls-1" d="M33.18,136.56H81.47a28.68,28.68,0,0,1,28.68,28.68V239.1a0,0,0,0,1,0,0H4.5a0,0,0,0,1,0,0V165.24A28.68,28.68,0,0,1,33.18,136.56Z"/><path class="cls-2" d="M215,136.56h48.29a28.68,28.68,0,0,1,28.68,28.68V239.1a0,0,0,0,1,0,0H186.28a0,0,0,0,1,0,0V165.24A28.68,28.68,0,0,1,215,136.56Z"/><circle class="cls-3" cx="54.22" cy="83.74" r="31.07"/><circle class="cls-4" cx="239.1" cy="85.29" r="31.07"/><circle class="cls-5" cx="150.54" cy="49.56" r="45.06"/><path class="cls-6" d="M120,111.7h54.94a34.68,34.68,0,0,1,34.68,34.68V239.1a0,0,0,0,1,0,0H85.29a0,0,0,0,1,0,0V146.38A34.68,34.68,0,0,1,120,111.7Z"/></svg>