<svg id="Capa_1" data-name="Capa 1" xmlns="http://www.w3.org/2000/svg" xmlns:xlink="http://www.w3.org/1999/xlink" viewBox="0 0 340.09 379.91"><defs><style>.cls-1{fill:url(#Degradado_sin_nombre_6);}.cls-2{fill:url(#Degradado_sin_nombre_6-2);}.cls-3{fill:url(#Degradado_sin_nombre_6-3);}.cls-4{fill:url(#Degradado_sin_nombre_6-4);}.cls-5{fill:url(#Degradado_sin_nombre_6-5);}</style><linearGradient id="Degradado_sin_nombre_6" x1="23.62" y1="209.11" x2="280.06" y2="209.11" gradientUnits="userSpaceOnUse"><stop offset="0" stop-color="#009f95"/><stop offset="1" stop-color="#00656e"/></linearGradient><linearGradient id="Degradado_sin_nombre_6-2" x1="85.61" y1="209.84" x2="218.52" y2="209.84" xlink:href="#Degradado_sin_nombre_6"/><linearGradient id="Degradado_sin_nombre_6-3" x1="55.11" y1="210.02" x2="249.06" y2="210.02" xlink:href="#Degradado_sin_nombre_6"/><linearGradient id="Degradado_sin_nombre_6-4" x1="119.64" y1="209.71" x2="184.48" y2="209.71" xlink:href="#Degradado_sin_nombre_6"/><linearGradient id="Degradado_sin_nombre_6-5" x1="-450.49" y1="1062.52" x2="-248.16" y2="1062.52" gradientTransform="translate(-284.34 -858.27) rotate(-44.94)" xlink:href="#Degradado_sin_nombre_6"/></defs><title>Iconos nuestros valores</title><path class="cls-1" d="M264.65,163.06a5.21,5.21,0,0,1,7.71,2.53,126.12,126.12,0,0,1,7.7,43.52c0,70.22-57.4,127.15-128.22,127.15S23.62,279.33,23.62,209.11,81,82,151.84,82a129.2,129.2,0,0,1,40.38,6.43A5.51,5.51,0,0,1,195,96.71h0a5.49,5.49,0,0,1-6.2,2.18,117.23,117.23,0,0,0-36.95-5.64c-62.57.47-114.34,50.92-116.33,113.46a117.3,117.3,0,0,0,121.1,121.08c61.85-2,112-52.68,113.41-114.55a117,117,0,0,0-7.47-44,5.17,5.17,0,0,1,2.08-6.14Z"/><path class="cls-2" d="M204.75,177.91a5.22,5.22,0,0,1,6.87,2.37,66.44,66.44,0,1,1-30.81-30.45,5.19,5.19,0,0,1,1.84,7.85h0a5.21,5.21,0,0,1-6.41,1.47,55.78,55.78,0,1,0,26,25.76,5.2,5.2,0,0,1,2.52-7Z"/><path class="cls-3" d="M231.39,174.89a86.33,86.33,0,0,1,7.07,36.71c-1.19,44.76-37.17,81.69-81.89,84a86.43,86.43,0,0,1-90.8-90.84C68,161,103.35,125.46,147,123a86.23,86.23,0,0,1,41.7,8,4.93,4.93,0,0,0,6.35-2h0a5,5,0,0,0-2.16-7,96.58,96.58,0,0,0-40.51-9c-52.13-.18-95.58,41.69-97.25,93.8A97,97,0,0,0,155.26,307c51.84-1.66,93.6-44.68,93.8-96.54a96.48,96.48,0,0,0-8.28-39.66,5.07,5.07,0,0,0-5.83-2.88l-.19,0A5.05,5.05,0,0,0,231.39,174.89Z"/><path class="cls-4" d="M184.33,206.62a33.14,33.14,0,0,1,0,6.22,32.42,32.42,0,1,1-35.7-35.37,33.11,33.11,0,0,1,6.21-.06,5.2,5.2,0,0,1,4.64,5.89h0a5.26,5.26,0,0,1-5.68,4.53c-.56,0-1.13-.06-1.7-.06a22,22,0,1,0,21.93,22,19.63,19.63,0,0,0-.1-2,5.23,5.23,0,0,1,4.26-5.63h0A5.19,5.19,0,0,1,184.33,206.62Z"/><path class="cls-5" d="M312.12,93.6l-45.8,0,.05-46.36a5.49,5.49,0,0,0-1-3.21,5.31,5.31,0,0,0-.8-1.05,5.53,5.53,0,0,0-7.82,0L200.46,99.08s0,.06-.07.08a5.51,5.51,0,0,0-1.71,4l-.05,50.49-50.94,50.85a5.53,5.53,0,0,0,7.82,7.82L207,160.9l49.37,0a5.48,5.48,0,0,0,4.37-2.18L316.64,103a5.52,5.52,0,0,0,0-7.82h0A5.49,5.49,0,0,0,312.12,93.6ZM209.74,105.44,255.3,60l0,37.15L209.7,142.59ZM254,149.89l-35.92,0,45.32-45.24,35.92,0Z"/></svg>