<svg id="Capa_1" data-name="Capa 1" xmlns="http://www.w3.org/2000/svg" xmlns:xlink="http://www.w3.org/1999/xlink" viewBox="0 0 92 102"><defs><style>.cls-1{fill:url(#Degradado_sin_nombre_6);}.cls-2{fill:url(#Degradado_sin_nombre_6-2);}.cls-3{fill:url(#Degradado_sin_nombre_6-3);}</style><linearGradient id="Degradado_sin_nombre_6" y1="51" x2="92" y2="51" gradientUnits="userSpaceOnUse"><stop offset="0" stop-color="#009f95"/><stop offset="1" stop-color="#00656e"/></linearGradient><linearGradient id="Degradado_sin_nombre_6-2" x1="6.29" y1="39.16" x2="85.71" y2="39.16" xlink:href="#Degradado_sin_nombre_6"/><linearGradient id="Degradado_sin_nombre_6-3" x1="44" y1="72.27" x2="48.01" y2="72.27" xlink:href="#Degradado_sin_nombre_6"/></defs><title>Iconos servicios </title><path class="cls-1" d="M56.9,81.16V87.3h13a4,4,0,0,1,3.77,3.79c.35,2.74-.65,5-2.61,5.69a4,4,0,0,1-1.33.21c-5.8,0-11.6,0-17.4,0q-15,0-30,0a3.77,3.77,0,0,1-3.71-3c-.57-2-.22-4.49,1.13-5.74a3.31,3.31,0,0,1,2.33-1H35.09c0-.24,0-.45,0-.65,0-1.62,0-3.24,0-4.86,0-.54-.14-.69-.57-.68-1.59,0-3.18,0-4.77,0H7.89C3.8,81.1.75,78,.08,73.07A8.87,8.87,0,0,1,0,71.71Q0,60,0,48.35q0-16.91,0-33.8C0,9.86,2.45,6.14,6.21,5.2A11,11,0,0,1,8.78,5H41.13Q62.38,5,83.65,5a7.39,7.39,0,0,1,6.14,2.79A9.76,9.76,0,0,1,92,14.06C92,25.52,92,37,92,48.44c0,7.77,0,15.53,0,23.29,0,5.23-3.36,9.36-7.67,9.38-5.43,0-10.86,0-16.29,0H57.41C57.25,81.12,57.1,81.14,56.9,81.16ZM45.94,79H69.81c4.75,0,9.49,0,14.24,0,3.64,0,6.28-3.48,6.23-7.56-.09-7.35,0-14.71,0-22.07q0-17.5,0-35c0-3.71-2.08-6.68-5.08-7.15a23.72,23.72,0,0,0-3.58-.11H7.9c-3.59,0-6.15,3.1-6.15,7.46,0,19,0,38,0,57,0,3.91,2.48,7.51,6.17,7.49,7.52,0,15.05,0,22.58,0Zm9.2,2.18H36.86v8.21H36c-4.58,0-9.17,0-13.75,0a1.87,1.87,0,0,0-2,1.37,3.75,3.75,0,0,0,.23,3.2,2,2,0,0,0,1.88.92H69.5a4.73,4.73,0,0,0,.53,0,1.88,1.88,0,0,0,1.74-1.53c.5-2.1-.11-4-2.18-4-4.57.07-9.14,0-13.71,0h-.74Z"/><path class="cls-2" d="M45.94,66.45H9.35A2.78,2.78,0,0,1,6.8,65a4.42,4.42,0,0,1-.51-2.37V22.43c0-2.26,0-4.53,0-6.79s1.14-3.77,3.11-3.77H78c1.55,0,3.09,0,4.64,0,1.94,0,3.1,1.36,3.1,3.71q0,16,0,32c0,5,0,10,0,15,0,2.56-1.07,3.85-3.19,3.85Zm.06-2.1H82.52c1.14,0,1.47-.39,1.47-1.77V16c0-1.67-.27-2-1.64-2H9.42C8.37,14,8,14.42,8,15.71V62.65c0,1.27.34,1.7,1.35,1.7,1.73,0,3.45,0,5.18,0Z"/><path class="cls-3" d="M44,72.22a2,2,0,1,1,4,.14,2,2,0,0,1-2.08,1.93A2,2,0,0,1,44,72.22Z"/></svg>