<svg id="Capa_1" data-name="Capa 1" xmlns="http://www.w3.org/2000/svg" xmlns:xlink="http://www.w3.org/1999/xlink" viewBox="0 0 340.09 379.91"><defs><style>.cls-1{fill:none;stroke:#315e62;}.cls-1,.cls-10,.cls-11,.cls-12,.cls-13,.cls-3,.cls-4,.cls-5,.cls-6,.cls-7,.cls-8,.cls-9{stroke-miterlimit:10;stroke-width:6px;}.cls-2{fill:url(#Degradado_sin_nombre_6);}.cls-10,.cls-11,.cls-12,.cls-13,.cls-3,.cls-4,.cls-5,.cls-6,.cls-7,.cls-8,.cls-9{fill:#fff;}.cls-13,.cls-3,.cls-4,.cls-5,.cls-6{stroke-linecap:round;}.cls-3{stroke:url(#Degradado_sin_nombre_6-2);}.cls-4{stroke:url(#Degradado_sin_nombre_6-3);}.cls-5{stroke:url(#Degradado_sin_nombre_6-4);}.cls-6{stroke:url(#Degradado_sin_nombre_6-5);}.cls-7{stroke:url(#Degradado_sin_nombre_6-6);}.cls-8{stroke:url(#Degradado_sin_nombre_6-7);}.cls-9{stroke:url(#Degradado_sin_nombre_6-8);}.cls-10{stroke:url(#Degradado_sin_nombre_6-9);}.cls-11{stroke:url(#Degradado_sin_nombre_6-10);}.cls-12{stroke:#00646d;}.cls-13{stroke:url(#Degradado_sin_nombre_6-11);}</style><linearGradient id="Degradado_sin_nombre_6" x1="242.51" y1="124.85" x2="249.44" y2="124.85" gradientUnits="userSpaceOnUse"><stop offset="0" stop-color="#009f95"/><stop offset="1" stop-color="#00656e"/></linearGradient><linearGradient id="Degradado_sin_nombre_6-2" x1="137.31" y1="234.61" x2="168.78" y2="234.61" xlink:href="#Degradado_sin_nombre_6"/><linearGradient id="Degradado_sin_nombre_6-3" x1="153.64" y1="229.66" x2="195.21" y2="229.66" xlink:href="#Degradado_sin_nombre_6"/><linearGradient id="Degradado_sin_nombre_6-4" x1="193.03" y1="215.63" x2="222.32" y2="215.63" xlink:href="#Degradado_sin_nombre_6"/><linearGradient id="Degradado_sin_nombre_6-5" x1="191.35" y1="231.3" x2="205.72" y2="231.3" xlink:href="#Degradado_sin_nombre_6"/><linearGradient id="Degradado_sin_nombre_6-6" x1="165.17" y1="120.98" x2="207.19" y2="120.98" xlink:href="#Degradado_sin_nombre_6"/><linearGradient id="Degradado_sin_nombre_6-7" x1="227.13" y1="270.02" x2="291.84" y2="270.02" xlink:href="#Degradado_sin_nombre_6"/><linearGradient id="Degradado_sin_nombre_6-8" x1="171.83" y1="290.98" x2="236.55" y2="290.98" xlink:href="#Degradado_sin_nombre_6"/><linearGradient id="Degradado_sin_nombre_6-9" x1="113.12" y1="304.13" x2="177.83" y2="304.13" xlink:href="#Degradado_sin_nombre_6"/><linearGradient id="Degradado_sin_nombre_6-10" x1="54.41" y1="318.34" x2="119.12" y2="318.34" xlink:href="#Degradado_sin_nombre_6"/><linearGradient id="Degradado_sin_nombre_6-11" x1="161.47" y1="150.96" x2="253.61" y2="150.96" xlink:href="#Degradado_sin_nombre_6"/></defs><title>Iconos nuestros valores</title><polygon class="cls-1" points="307.21 88.65 247.78 88.65 247.78 48.85 307.21 48.85 287.76 68.75 307.21 88.65"/><path class="cls-2" d="M246,41.32h0a3.44,3.44,0,0,1,3.44,3.44V208.38a0,0,0,0,1,0,0h-6.93a0,0,0,0,1,0,0V44.76A3.44,3.44,0,0,1,246,41.32Z"/><path class="cls-3" d="M140.31,275.17s22.82-29.72,24.26-39,1.2-42.16,1.2-42.16"/><path class="cls-4" d="M192.19,184.15s.47,43.18-3.61,50.46-31.94,40.56-31.94,40.56"/><path class="cls-5" d="M196,184.15s23.29,18.66,23.29,25.53V247.1"/><path class="cls-6" d="M194.35,215.63s7.68-1.21,8.16,3.76,0,27.71,0,27.71"/><ellipse class="cls-7" cx="186.18" cy="120.98" rx="18.01" ry="17.76"/><path class="cls-8" d="M247.12,205.18h24.73a17,17,0,0,1,17,17V334.86a0,0,0,0,1,0,0H230.13a0,0,0,0,1,0,0V222.17A17,17,0,0,1,247.12,205.18Z"/><path class="cls-9" d="M188.81,247.1h30.76a14,14,0,0,1,14,14v73.78a0,0,0,0,1,0,0H174.83a0,0,0,0,1,0,0V261.08A14,14,0,0,1,188.81,247.1Z"/><path class="cls-10" d="M127.48,275.17h36a11.36,11.36,0,0,1,11.36,11.36v46.56a0,0,0,0,1,0,0H116.12a0,0,0,0,1,0,0V286.53A11.36,11.36,0,0,1,127.48,275.17Z"/><path class="cls-11" d="M66,301.82h41.56a8.58,8.58,0,0,1,8.58,8.58v24.46a0,0,0,0,1,0,0H57.41a0,0,0,0,1,0,0V310.39A8.58,8.58,0,0,1,66,301.82Z"/><rect class="cls-12" x="40.3" y="322.51" width="266.91" height="14.84" rx="7.42"/><path class="cls-13" d="M177.3,157.33s-.72-13.26,8.88-18.59c7.57-4.2,39.61-23.19,52.84-31a7.7,7.7,0,0,1,9.93,1.79h0a7.46,7.46,0,0,1-1.47,10.77c-13.31,9.61-42.73,31-43.29,33.05-.72,2.6,5,16.1-3.36,24.87s-35.06,15.87-35.06,15.87l6.72-24.16"/></svg>