<svg id="Capa_1" data-name="Capa 1" xmlns="http://www.w3.org/2000/svg" xmlns:xlink="http://www.w3.org/1999/xlink" viewBox="0 0 277.04 299.02"><defs><style>.cls-1,.cls-3,.cls-4{fill:none;}.cls-1{stroke:#315e62;}.cls-1,.cls-10,.cls-11,.cls-12,.cls-13,.cls-3,.cls-4,.cls-5,.cls-6,.cls-7,.cls-8,.cls-9{stroke-miterlimit:10;stroke-width:6px;}.cls-2{fill:url(#Degradado_sin_nombre_6);}.cls-13,.cls-3,.cls-4,.cls-5,.cls-6{stroke-linecap:round;}.cls-3{stroke:url(#Degradado_sin_nombre_6-2);}.cls-4{stroke:url(#Degradado_sin_nombre_6-3);}.cls-10,.cls-11,.cls-12,.cls-13,.cls-5,.cls-6,.cls-7,.cls-8,.cls-9{fill:#fff;}.cls-5{stroke:url(#Degradado_sin_nombre_6-4);}.cls-6{stroke:url(#Degradado_sin_nombre_6-5);}.cls-7{stroke:url(#Degradado_sin_nombre_6-6);}.cls-8{stroke:url(#Degradado_sin_nombre_6-7);}.cls-9{stroke:url(#Degradado_sin_nombre_6-8);}.cls-10{stroke:url(#Degradado_sin_nombre_6-9);}.cls-11{stroke:url(#Degradado_sin_nombre_6-10);}.cls-12{stroke:#00646d;}.cls-13{stroke:url(#Degradado_sin_nombre_6-11);}</style><linearGradient id="Degradado_sin_nombre_6" x1="205.21" y1="83.53" x2="212.14" y2="83.53" gradientUnits="userSpaceOnUse"><stop offset="0" stop-color="#009f95"/><stop offset="1" stop-color="#00656e"/></linearGradient><linearGradient id="Degradado_sin_nombre_6-2" x1="125.62" y1="234.61" x2="157.09" y2="234.61" xlink:href="#Degradado_sin_nombre_6"/><linearGradient id="Degradado_sin_nombre_6-3" x1="141.95" y1="229.66" x2="183.51" y2="229.66" xlink:href="#Degradado_sin_nombre_6"/><linearGradient id="Degradado_sin_nombre_6-4" x1="181.33" y1="215.63" x2="210.62" y2="215.63" xlink:href="#Degradado_sin_nombre_6"/><linearGradient id="Degradado_sin_nombre_6-5" x1="179.65" y1="231.3" x2="194.03" y2="231.3" xlink:href="#Degradado_sin_nombre_6"/><linearGradient id="Degradado_sin_nombre_6-6" x1="127.87" y1="79.66" x2="169.89" y2="79.66" xlink:href="#Degradado_sin_nombre_6"/><linearGradient id="Degradado_sin_nombre_6-7" x1="189.83" y1="228.7" x2="254.54" y2="228.7" xlink:href="#Degradado_sin_nombre_6"/><linearGradient id="Degradado_sin_nombre_6-8" x1="134.54" y1="249.66" x2="199.25" y2="249.66" xlink:href="#Degradado_sin_nombre_6"/><linearGradient id="Degradado_sin_nombre_6-9" x1="75.82" y1="262.81" x2="140.54" y2="262.81" xlink:href="#Degradado_sin_nombre_6"/><linearGradient id="Degradado_sin_nombre_6-10" x1="17.11" y1="277.02" x2="81.82" y2="277.02" xlink:href="#Degradado_sin_nombre_6"/><linearGradient id="Degradado_sin_nombre_6-11" x1="149.78" y1="150.96" x2="241.92" y2="150.96" xlink:href="#Degradado_sin_nombre_6"/></defs><title>Iconos nuestros valores_Excelencia humana</title><polygon class="cls-1" points="269.91 47.32 210.48 47.32 210.48 7.53 269.91 7.53 250.46 27.43 269.91 47.32"/><path class="cls-2" d="M208.65,0h0a3.44,3.44,0,0,1,3.44,3.44V167.06a0,0,0,0,1,0,0h-6.93a0,0,0,0,1,0,0V3.44A3.44,3.44,0,0,1,208.65,0Z"/><path class="cls-3" d="M128.62,275.17s22.81-29.72,24.25-39,1.2-42.16,1.2-42.16" transform="translate(-25.6 -41.32)"/><path class="cls-4" d="M180.5,184.15s.47,43.18-3.61,50.46S145,275.17,145,275.17" transform="translate(-25.6 -41.32)"/><path class="cls-5" d="M184.33,184.15s23.29,18.66,23.29,25.53V247.1" transform="translate(-25.6 -41.32)"/><path class="cls-6" d="M182.65,215.63s7.68-1.21,8.16,3.76,0,27.71,0,27.71" transform="translate(-25.6 -41.32)"/><ellipse class="cls-7" cx="148.88" cy="79.66" rx="18.01" ry="17.76"/><path class="cls-8" d="M209.82,163.86h24.73a17,17,0,0,1,17,17V293.54a0,0,0,0,1,0,0H192.83a0,0,0,0,1,0,0V180.85A17,17,0,0,1,209.82,163.86Z"/><path class="cls-9" d="M151.51,205.78h30.76a14,14,0,0,1,14,14v73.78a0,0,0,0,1,0,0H137.54a0,0,0,0,1,0,0V219.76A14,14,0,0,1,151.51,205.78Z"/><path class="cls-10" d="M90.18,233.85h36a11.36,11.36,0,0,1,11.36,11.36v46.56a0,0,0,0,1,0,0H78.82a0,0,0,0,1,0,0V245.2A11.36,11.36,0,0,1,90.18,233.85Z"/><path class="cls-11" d="M28.69,260.5H70.25a8.58,8.58,0,0,1,8.58,8.58v24.46a0,0,0,0,1,0,0H20.11a0,0,0,0,1,0,0V269.07A8.58,8.58,0,0,1,28.69,260.5Z"/><rect class="cls-12" x="3" y="281.19" width="266.91" height="14.84" rx="7.42"/><path class="cls-13" d="M165.6,157.33s-.72-13.26,8.89-18.59c7.57-4.2,39.6-23.19,52.84-31a7.7,7.7,0,0,1,9.93,1.79h0a7.48,7.48,0,0,1-1.47,10.77c-13.31,9.61-42.74,31-43.29,33.05-.73,2.6,5,16.1-3.37,24.87s-35.06,15.87-35.06,15.87l6.73-24.16" transform="translate(-25.6 -41.32)"/></svg>