<svg id="Capa_1" data-name="Capa 1" xmlns="http://www.w3.org/2000/svg" xmlns:xlink="http://www.w3.org/1999/xlink" viewBox="0 0 294.65 294.94"><defs><style>.cls-1{fill:url(#Degradado_sin_nombre_6);}.cls-2{fill:url(#Degradado_sin_nombre_6-2);}.cls-3{fill:url(#Degradado_sin_nombre_6-3);}.cls-4{fill:url(#Degradado_sin_nombre_6-4);}.cls-5{fill:url(#Degradado_sin_nombre_6-5);}</style><linearGradient id="Degradado_sin_nombre_6" x1="24.72" y1="209.11" x2="281.16" y2="209.11" gradientUnits="userSpaceOnUse"><stop offset="0" stop-color="#009f95"/><stop offset="1" stop-color="#00656e"/></linearGradient><linearGradient id="Degradado_sin_nombre_6-2" x1="86.71" y1="209.84" x2="219.61" y2="209.84" xlink:href="#Degradado_sin_nombre_6"/><linearGradient id="Degradado_sin_nombre_6-3" x1="56.21" y1="210.02" x2="250.16" y2="210.02" xlink:href="#Degradado_sin_nombre_6"/><linearGradient id="Degradado_sin_nombre_6-4" x1="120.74" y1="209.71" x2="185.57" y2="209.71" xlink:href="#Degradado_sin_nombre_6"/><linearGradient id="Degradado_sin_nombre_6-5" x1="-344.5" y1="808.93" x2="-142.16" y2="808.93" gradientTransform="translate(-179.12 -603.9) rotate(-44.94)" xlink:href="#Degradado_sin_nombre_6"/></defs><title>Iconos nuestros valores_ Propósito</title><path class="cls-1" d="M265.75,163.06a5.21,5.21,0,0,1,7.71,2.53,126.12,126.12,0,0,1,7.7,43.52c0,70.22-57.4,127.15-128.22,127.15S24.72,279.33,24.72,209.11,82.13,82,152.94,82a129.09,129.09,0,0,1,40.37,6.43,5.51,5.51,0,0,1,2.79,8.32h0a5.48,5.48,0,0,1-6.19,2.18A117.23,117.23,0,0,0,153,93.25c-62.57.47-114.34,50.92-116.34,113.46A117.31,117.31,0,0,0,157.73,327.79c61.85-2,112-52.68,113.41-114.55a117.41,117.41,0,0,0-7.47-44,5.17,5.17,0,0,1,2.08-6.14Z" transform="translate(-24.72 -41.32)"/><path class="cls-2" d="M205.85,177.91a5.21,5.21,0,0,1,6.86,2.37,66.41,66.41,0,1,1-30.8-30.45,5.19,5.19,0,0,1,1.84,7.85h0a5.21,5.21,0,0,1-6.41,1.47,55.78,55.78,0,1,0,26,25.76,5.2,5.2,0,0,1,2.52-7Z" transform="translate(-24.72 -41.32)"/><path class="cls-3" d="M232.49,174.89a86.33,86.33,0,0,1,7.07,36.71c-1.19,44.76-37.17,81.69-81.89,84a86.43,86.43,0,0,1-90.8-90.84C69.1,161,104.45,125.46,148.13,123a86.26,86.26,0,0,1,41.7,8,4.93,4.93,0,0,0,6.35-2h0a4.94,4.94,0,0,0-2.17-7,96.5,96.5,0,0,0-40.5-9c-52.14-.18-95.59,41.69-97.25,93.8A97,97,0,0,0,156.36,307c51.84-1.66,93.6-44.68,93.8-96.54a96.64,96.64,0,0,0-8.28-39.66,5.07,5.07,0,0,0-5.83-2.88l-.19,0A5.05,5.05,0,0,0,232.49,174.89Z" transform="translate(-24.72 -41.32)"/><path class="cls-4" d="M185.43,206.62a33.14,33.14,0,0,1,0,6.22,32.42,32.42,0,1,1-35.71-35.37,33.22,33.22,0,0,1,6.22-.06,5.2,5.2,0,0,1,4.64,5.89h0a5.26,5.26,0,0,1-5.68,4.53c-.56,0-1.13-.06-1.7-.06a22,22,0,1,0,21.93,22c0-.69,0-1.37-.1-2a5.23,5.23,0,0,1,4.25-5.63h0A5.21,5.21,0,0,1,185.43,206.62Z" transform="translate(-24.72 -41.32)"/><path class="cls-5" d="M313.22,93.6l-45.8,0,.05-46.36a5.49,5.49,0,0,0-1-3.21,5.31,5.31,0,0,0-.8-1.05,5.53,5.53,0,0,0-7.82,0L201.56,99.08s0,.06-.07.08a5.51,5.51,0,0,0-1.71,4l-.05,50.49-50.94,50.85a5.53,5.53,0,1,0,7.81,7.82l51.51-51.4,49.36,0a5.5,5.5,0,0,0,4.38-2.18L317.74,103a5.53,5.53,0,0,0,0-7.82h0A5.5,5.5,0,0,0,313.22,93.6ZM210.84,105.44,256.4,60l0,37.15L210.8,142.59Zm44.26,44.45-35.92,0,45.32-45.24,35.92,0Z" transform="translate(-24.72 -41.32)"/></svg>