<svg id="Capa_1" data-name="Capa 1" xmlns="http://www.w3.org/2000/svg" xmlns:xlink="http://www.w3.org/1999/xlink" viewBox="0 0 340.09 379.91"><defs><style>.cls-1,.cls-2,.cls-3,.cls-4,.cls-5,.cls-6{fill:#fff;stroke-miterlimit:10;stroke-width:9px;}.cls-1{stroke:url(#Degradado_sin_nombre_6);}.cls-2{stroke:url(#Degradado_sin_nombre_6-2);}.cls-3{stroke:url(#Degradado_sin_nombre_6-3);}.cls-4{stroke:url(#Degradado_sin_nombre_6-4);}.cls-5{stroke:url(#Degradado_sin_nombre_6-5);}.cls-6{stroke:url(#Degradado_sin_nombre_6-6);}</style><linearGradient id="Degradado_sin_nombre_6" x1="22.84" y1="243.21" x2="137.49" y2="243.21" gradientUnits="userSpaceOnUse"><stop offset="0" stop-color="#009f95"/><stop offset="1" stop-color="#00656e"/></linearGradient><linearGradient id="Degradado_sin_nombre_6-2" x1="204.62" y1="243.21" x2="319.27" y2="243.21" xlink:href="#Degradado_sin_nombre_6"/><linearGradient id="Degradado_sin_nombre_6-3" x1="41.49" y1="139.12" x2="112.63" y2="139.12" xlink:href="#Degradado_sin_nombre_6"/><linearGradient id="Degradado_sin_nombre_6-4" x1="226.37" y1="140.67" x2="297.52" y2="140.67" xlink:href="#Degradado_sin_nombre_6"/><linearGradient id="Degradado_sin_nombre_6-5" x1="123.83" y1="104.94" x2="222.94" y2="104.94" xlink:href="#Degradado_sin_nombre_6"/><linearGradient id="Degradado_sin_nombre_6-6" x1="103.63" y1="230.78" x2="236.93" y2="230.78" xlink:href="#Degradado_sin_nombre_6"/></defs><title>Iconos nuestros valores</title><path class="cls-1" d="M56,191.94h48.29A28.68,28.68,0,0,1,133,220.62v73.86a0,0,0,0,1,0,0H27.34a0,0,0,0,1,0,0V220.62A28.68,28.68,0,0,1,56,191.94Z"/><path class="cls-2" d="M237.8,191.94h48.29a28.68,28.68,0,0,1,28.68,28.68v73.86a0,0,0,0,1,0,0H209.12a0,0,0,0,1,0,0V220.62A28.68,28.68,0,0,1,237.8,191.94Z"/><circle class="cls-3" cx="77.06" cy="139.12" r="31.07"/><circle class="cls-4" cx="261.95" cy="140.67" r="31.07"/><circle class="cls-5" cx="173.39" cy="104.94" r="45.06"/><path class="cls-6" d="M142.81,167.08h54.94a34.68,34.68,0,0,1,34.68,34.68v92.72a0,0,0,0,1,0,0H108.13a0,0,0,0,1,0,0V201.76A34.68,34.68,0,0,1,142.81,167.08Z"/></svg>