<svg id="Capa_1" data-name="Capa 1" xmlns="http://www.w3.org/2000/svg" xmlns:xlink="http://www.w3.org/1999/xlink" viewBox="0 0 92 102"><defs><style>.cls-1{fill:url(#Degradado_sin_nombre_6);}.cls-2{fill:url(#Degradado_sin_nombre_6-2);}.cls-3{fill:url(#Degradado_sin_nombre_6-3);}.cls-4{fill:url(#Degradado_sin_nombre_6-4);}.cls-5{fill:url(#Degradado_sin_nombre_6-5);}.cls-6{fill:url(#Degradado_sin_nombre_6-6);}.cls-7{fill:url(#Degradado_sin_nombre_6-7);}.cls-8{fill:url(#Degradado_sin_nombre_6-8);}.cls-9{fill:url(#Degradado_sin_nombre_6-9);}.cls-10{fill:url(#Degradado_sin_nombre_6-10);}.cls-11{fill:url(#Degradado_sin_nombre_6-11);}.cls-12{fill:url(#Degradado_sin_nombre_6-12);}.cls-13{fill:url(#Degradado_sin_nombre_6-13);}</style><linearGradient id="Degradado_sin_nombre_6" x1="9.65" y1="71.18" x2="68.74" y2="71.18" gradientUnits="userSpaceOnUse"><stop offset="0" stop-color="#009f95"/><stop offset="1" stop-color="#00656e"/></linearGradient><linearGradient id="Degradado_sin_nombre_6-2" x1="41.94" y1="21.31" x2="84.22" y2="21.31" xlink:href="#Degradado_sin_nombre_6"/><linearGradient id="Degradado_sin_nombre_6-3" x1="0" y1="15.57" x2="28.42" y2="15.57" xlink:href="#Degradado_sin_nombre_6"/><linearGradient id="Degradado_sin_nombre_6-4" x1="28.21" y1="32" x2="39.89" y2="32" xlink:href="#Degradado_sin_nombre_6"/><linearGradient id="Degradado_sin_nombre_6-5" x1="78.39" y1="67.02" x2="92" y2="67.02" xlink:href="#Degradado_sin_nombre_6"/><linearGradient id="Degradado_sin_nombre_6-6" x1="51.23" y1="45.53" x2="58.19" y2="45.53" xlink:href="#Degradado_sin_nombre_6"/><linearGradient id="Degradado_sin_nombre_6-7" x1="58.87" y1="55.5" x2="70.31" y2="55.5" xlink:href="#Degradado_sin_nombre_6"/><linearGradient id="Degradado_sin_nombre_6-8" x1="57.84" y1="49.21" x2="64.62" y2="49.21" xlink:href="#Degradado_sin_nombre_6"/><linearGradient id="Degradado_sin_nombre_6-9" x1="26.03" y1="70.56" x2="34.56" y2="70.56" xlink:href="#Degradado_sin_nombre_6"/><linearGradient id="Degradado_sin_nombre_6-10" x1="187.21" y1="25.92" x2="193.65" y2="25.92" gradientTransform="translate(-68.53 -73.13) rotate(30.45)" xlink:href="#Degradado_sin_nombre_6"/><linearGradient id="Degradado_sin_nombre_6-11" x1="53.87" y1="13.99" x2="71.84" y2="13.99" xlink:href="#Degradado_sin_nombre_6"/><linearGradient id="Degradado_sin_nombre_6-12" x1="53.59" y1="19" x2="71.55" y2="19" xlink:href="#Degradado_sin_nombre_6"/><linearGradient id="Degradado_sin_nombre_6-13" x1="5.88" y1="40.78" x2="20.23" y2="40.78" xlink:href="#Degradado_sin_nombre_6"/></defs><title>Iconos servicios </title><path class="cls-1" d="M44.57,85.05c2.63,3.12,2.6,4.63,0,7.31q-2.82,2.86-5.67,5.7c-2.57,2.55-4.21,2.57-6.8-.06-1.35-1.37-2.56-2.88-3.62-4.1-.68,1.94-.9,3.8-1.86,5.08-2,2.63-4.73,2.64-7.09.34-2.55-2.5-5-5.07-7.55-7.62-2.32-2.36-2.85-4.32-1.73-6.32,1.44-2.59,3.44-3.28,7.06-2.32,1.81-3.86,3.65-7.74,5.47-11.64,3-6.41,6-12.84,9-19.23.52-1.11.71-1.85-.18-3-1.68-2.08-1.2-4.72.91-6.55a4.43,4.43,0,0,1,6.4.09Q53.06,57,67.17,71.33a4.47,4.47,0,0,1,.22,6.6c-1.92,2.24-4.29,2.49-6.7.82a2.35,2.35,0,0,0-1.87-.41C54.1,80.48,49.44,82.74,44.57,85.05ZM34.71,52.94c-.24.41-.51.83-.72,1.28Q28,67.09,22,80c-2.59,5.56-2.55,5.53,1.82,9.89a2.09,2.09,0,0,0,2.87.47c6.67-3.24,13.37-6.4,20.07-9.59l10.51-5Zm.83-8.84c-.69.62-1.62,1.06-1.77,1.68a2.88,2.88,0,0,0,.71,2.28Q48.18,62,62,75.86c1,1,1.86,1.49,3,.31s.85-2-.17-3Q51,59.26,37.26,45.38A13.72,13.72,0,0,0,35.54,44.1ZM44,88.47c-1.15-.62-2.4-1.83-3.06-1.56-3.6,1.44-7,3.24-10.21,4.76L35.54,97ZM25.14,96a5.12,5.12,0,0,0-.57-1.21c-3-3-5.92-6.07-9-9-.35-.32-1.75,0-2.2.44a2.36,2.36,0,0,0-.3,2.22c2.82,3.06,5.77,6,8.76,8.9a1.91,1.91,0,0,0,1.76.3A6.59,6.59,0,0,0,25.14,96Z"/><path class="cls-2" d="M51.24,39.62c0-2.73-.08-5,0-7.29.08-1.44-.49-2.13-1.62-3a26,26,0,0,1-6.11-6c-2.79-4.4-1.8-9.56,1.92-13.57,8-8.59,26-9.06,34.43-.89,6.46,6.29,5.63,14.48-2,19.73a24.62,24.62,0,0,1-14.06,4.21,8.5,8.5,0,0,0-5.51,1.83C56.15,36.31,53.85,37.79,51.24,39.62ZM53.9,34a21.8,21.8,0,0,0,2-1.33,11.59,11.59,0,0,1,8.49-3,19.82,19.82,0,0,0,12.12-3.79c6.23-4.43,6.27-11.51.09-16-7.18-5.22-19-5.39-26.5-.39-6.7,4.46-7.05,11.85-.37,16.27C52.81,27.84,55.37,29.44,53.9,34Z"/><path class="cls-3" d="M28.42,19.71c-.53.43-1.11,1.23-1.85,1.42C19.64,23,12.67,24.68,5.72,26.47A1.78,1.78,0,0,1,3.26,25Q1.69,18.67.12,12.38a1.83,1.83,0,0,1,1.56-2.6c6.89-1.7,13.75-3.53,20.66-5.17.74-.18,2.31.4,2.46.93C26.1,10.05,27.16,14.63,28.42,19.71ZM25.1,18.45,22.65,8.86c-2.28,2.47-4.33,4.6-6.27,6.84-1.11,1.27-2.18,1.73-3.85,1.05-2.85-1.16-5.79-2.08-9.07-3.23l2.45,9.81Zm-6.17-10-12,3.08c2.41.87,4.25,1.57,6.12,2.17a1.53,1.53,0,0,0,1.31-.3C15.76,12,17.11,10.43,18.93,8.45Z"/><path class="cls-4" d="M31.86,40c-.4-.54-1-1-1.08-1.51C29.87,34.27,29,30,28.25,25.79c-.26-1.42.93-2.23,2.25-1.56,3,1.51,5.94,3.05,8.78,4.78a2.47,2.47,0,0,1,.47,2.36c-2,2.73-4.3,5.32-6.52,7.92C33,39.59,32.48,39.69,31.86,40ZM31.71,28.2,33,35l3.42-4.23Z"/><path class="cls-5" d="M85.84,61.71c-3,1.24-5.18,2.22-5,5.09.08,1.71,2.39,4,4.11,4.3,2.36.44,3.46-1.17,4.62-2.89l-1.82-2-1.85,1.62c-1.61-1.44-1.61-1.44,2.42-4.84,1.1,1.24,2.26,2.48,3.32,3.81a1.81,1.81,0,0,1,.33,1.52c-1.37,2.78-3.28,5.12-6.58,5.38-2.9.24-4.87-1.54-6.27-3.91-2-3.46.64-9,4.57-9.43C84.17,60.28,84.77,61,85.84,61.71Z"/><path class="cls-6" d="M53.92,51.29l-2.69-1.17,4.25-10.36,2.71,1.08C56.77,44.32,55.38,47.7,53.92,51.29Z"/><path class="cls-7" d="M60.05,59,58.87,56.3,69.2,52l1.11,2.7Z"/><path class="cls-8" d="M62.89,46l1.73,1.6-4.91,4.92-1.87-1.81Z"/><path class="cls-9" d="M28.72,77.68,26,76.51l5.82-13.06,2.71,1.12Z"/><path class="cls-10" d="M86.29,45.61l-1.35,1.06c-.12.09-.23.24-.36.25s-.26-.13-.39-.2c-.29-.17-.59-.34-.87-.52-.1-.06-.14-.05-.19,0L80,51.57c-.1.18-.07.17-.25.07L78,50.58c-.15-.09-.15-.09-.06-.23L81,45c.07-.11.06-.16-.05-.23-.39-.21-.77-.45-1.15-.67-.08,0-.09-.08,0-.16.31-.51.61-1,.91-1.55,0-.09.09-.09.17,0l1.15.69c.09.05.13.05.19,0,.31-.55.62-1.09.94-1.63a2.42,2.42,0,0,1,2.76-1.12,2.61,2.61,0,0,1,.54.24l1.29.76c.08.05.09.08,0,.17L86.88,43c0,.08-.08.09-.16,0l-.56-.33A.79.79,0,0,0,85,43l-.74,1.26c0,.09,0,.13,0,.18l1.82,1.07Z"/><rect class="cls-11" x="53.87" y="13.02" width="17.96" height="1.95" rx="0.84"/><rect class="cls-12" x="53.59" y="18.03" width="17.96" height="1.95" rx="0.84"/><path class="cls-13" d="M14.1,32.83a6.19,6.19,0,0,0-4.57,10.3L6.28,46.41A1.36,1.36,0,0,0,8.2,48.34l3.55-3.59h0A6.17,6.17,0,1,0,14.1,32.83ZM14.1,43a4.15,4.15,0,1,1,4.12-4.15A4.14,4.14,0,0,1,14.1,43Z"/></svg>