<svg id="Capa_1" data-name="Capa 1" xmlns="http://www.w3.org/2000/svg" viewBox="0 0 240 50"><defs><style>.cls-1{fill:#fff;}.cls-2{fill:#009f95;}</style></defs><title>Logo mining agency</title><path class="cls-1" d="M174.19,59.21a.8.8,0,0,1,.28-.33.76.76,0,0,1,.43-.14h2.92a.72.72,0,0,1,.41.14.8.8,0,0,1,.28.33l6.09,14.26a.41.41,0,0,1,0,.4.47.47,0,0,1-.45.21h-3.57a.73.73,0,0,1-.42-.14.89.89,0,0,1-.31-.33l-.56-1.25A.94.94,0,0,0,179,72a.72.72,0,0,0-.41-.14h-4.4a.76.76,0,0,0-.43.14.73.73,0,0,0-.28.33l-.58,1.25a.76.76,0,0,1-.29.33.69.69,0,0,1-.4.14h-3.59a.63.63,0,0,1-.22,0,.41.41,0,0,1-.19-.12.4.4,0,0,1-.09-.21.44.44,0,0,1,.06-.3Zm1.23,9.12h1.86a.34.34,0,0,0,.3-.14.29.29,0,0,0,0-.32l-.5-1.23c-.2-.47-.38-.9-.54-1.31-.06-.13-.12-.19-.19-.19s-.13.06-.19.19l-1,2.54a.31.31,0,0,0,0,.32A.33.33,0,0,0,175.42,68.33Z" transform="translate(-23.61 -33.65)"/><path class="cls-1" d="M192.42,74.35a7.77,7.77,0,0,1-3.12-.63,8.36,8.36,0,0,1-2.56-1.7A7.81,7.81,0,0,1,185,69.5a7.73,7.73,0,0,1,0-6.16,8,8,0,0,1,1.73-2.53,8.21,8.21,0,0,1,2.56-1.71,7.77,7.77,0,0,1,3.12-.63,8.1,8.1,0,0,1,4,1,7.55,7.55,0,0,1,2.76,2.6.5.5,0,0,1,.06.38.53.53,0,0,1-.22.33l-2.51,1.61a.52.52,0,0,1-.37.08.59.59,0,0,1-.36-.2,5.46,5.46,0,0,0-1.45-1.28,3.85,3.85,0,0,0-3.4-.16,4.24,4.24,0,0,0-1.22.87,4.14,4.14,0,0,0-.82,1.27,3.93,3.93,0,0,0,0,3,3.93,3.93,0,0,0,.82,1.25,4.41,4.41,0,0,0,1.22.86,3.47,3.47,0,0,0,1.49.32,4.32,4.32,0,0,0,1.57-.29,2.61,2.61,0,0,0,1.23-1,.26.26,0,0,0,0-.3.31.31,0,0,0-.29-.14h-2.4a.48.48,0,0,1-.36-.14.52.52,0,0,1-.14-.36V65.67a.52.52,0,0,1,.14-.36.49.49,0,0,1,.36-.15h7.18a.55.55,0,0,1,.54.51,7.06,7.06,0,0,1,0,.87,9.51,9.51,0,0,1-.06,1,7.09,7.09,0,0,1-.82,2.69,7.28,7.28,0,0,1-1.72,2.14,8.19,8.19,0,0,1-5.29,1.93Z" transform="translate(-23.61 -33.65)"/><path class="cls-1" d="M206.76,63.09V64a.48.48,0,0,0,.14.35.49.49,0,0,0,.36.15h5.65a.49.49,0,0,1,.36.15.48.48,0,0,1,.14.35v2.9a.48.48,0,0,1-.14.35.49.49,0,0,1-.36.15h-5.65a.49.49,0,0,0-.36.15.5.5,0,0,0-.14.35v.8a.52.52,0,0,0,.14.36.48.48,0,0,0,.36.14h6.49a.47.47,0,0,1,.35.15.49.49,0,0,1,.15.36v2.89a.49.49,0,0,1-.15.36.47.47,0,0,1-.35.15H203.13a.49.49,0,0,1-.36-.15.52.52,0,0,1-.14-.36V59.23a.52.52,0,0,1,.14-.36.49.49,0,0,1,.36-.15h10.62a.47.47,0,0,1,.35.15.49.49,0,0,1,.15.36v2.85a.49.49,0,0,1-.15.36.5.5,0,0,1-.35.14h-6.49a.49.49,0,0,0-.36.15A.52.52,0,0,0,206.76,63.09Z" transform="translate(-23.61 -33.65)"/><path class="cls-1" d="M231.25,59.23V73.57a.49.49,0,0,1-.15.36.45.45,0,0,1-.35.15h-3.08a1,1,0,0,1-.44-.13,1,1,0,0,1-.35-.29L221.44,66c-.08-.11-.17-.16-.26-.14s-.13.1-.13.24v7.51a.49.49,0,0,1-.15.36.49.49,0,0,1-.35.15h-3.13a.49.49,0,0,1-.36-.15.52.52,0,0,1-.14-.36V59.23a.52.52,0,0,1,.14-.36.49.49,0,0,1,.36-.15h3.13a1,1,0,0,1,.44.12,1,1,0,0,1,.35.28l5.43,7.7A.29.29,0,0,0,227,67c.09,0,.13-.09.13-.23V59.23a.49.49,0,0,1,.15-.36.45.45,0,0,1,.35-.15h3.09a.45.45,0,0,1,.35.15A.49.49,0,0,1,231.25,59.23Z" transform="translate(-23.61 -33.65)"/><path class="cls-1" d="M249.13,70a11.51,11.51,0,0,1-1.34,1.78,7.61,7.61,0,0,1-1.63,1.37,8.18,8.18,0,0,1-2,.88,9.25,9.25,0,0,1-2.44.31,7.85,7.85,0,0,1-3.13-.63A8.43,8.43,0,0,1,236,72a7.85,7.85,0,0,1,0-11.2,8.43,8.43,0,0,1,2.55-1.7,7.85,7.85,0,0,1,3.13-.63,9.11,9.11,0,0,1,2.49.32,7.69,7.69,0,0,1,2,.88,7.55,7.55,0,0,1,1.62,1.37,13.14,13.14,0,0,1,1.32,1.77.42.42,0,0,1,0,.36.4.4,0,0,1-.25.27l-3,1.18a.61.61,0,0,1-.42,0,.65.65,0,0,1-.31-.25,4.31,4.31,0,0,0-1.46-1.48,4,4,0,0,0-2.07-.52,3.46,3.46,0,0,0-1.49.34,4.12,4.12,0,0,0-1.22.89,4.07,4.07,0,0,0-.81,1.3,4,4,0,0,0-.3,1.51,4,4,0,0,0,.3,1.53,3.93,3.93,0,0,0,.81,1.27,4.27,4.27,0,0,0,1.22.88,3.32,3.32,0,0,0,1.49.34,4,4,0,0,0,2.08-.56,4.23,4.23,0,0,0,1.47-1.44.68.68,0,0,1,.3-.25.58.58,0,0,1,.41,0l3,1.18a.4.4,0,0,1,.25.26A.45.45,0,0,1,249.13,70Z" transform="translate(-23.61 -33.65)"/><path class="cls-1" d="M263.51,59.33l-5.22,8.5a2.56,2.56,0,0,0-.19.46,1.84,1.84,0,0,0-.08.48v4.8a.49.49,0,0,1-.15.36.45.45,0,0,1-.35.15h-3.13a.49.49,0,0,1-.36-.15.52.52,0,0,1-.14-.36V68.79a2,2,0,0,0-.08-.49,1.37,1.37,0,0,0-.17-.45c-.84-1.44-1.69-2.86-2.56-4.24s-1.73-2.81-2.6-4.28a.48.48,0,0,1,0-.39.26.26,0,0,1,.27-.2h3.72a.86.86,0,0,1,.42.13.79.79,0,0,1,.33.32l2.55,4.48a.29.29,0,0,0,.25.17.28.28,0,0,0,.25-.17l2.54-4.48a.82.82,0,0,1,.32-.32.92.92,0,0,1,.43-.13h3.76a.33.33,0,0,1,.3.15C263.64,59,263.62,59.14,263.51,59.33Z" transform="translate(-23.61 -33.65)"/><path class="cls-2" d="M87.06,64.93v-8l-3.32,5.5a.24.24,0,0,1-.19.16.93.93,0,0,1-.24.05.85.85,0,0,1-.26-.05.25.25,0,0,1-.2-.16l-3.32-5.5v8H75.47V49.35h3.8a.42.42,0,0,1,.34.18l3.68,6.17L87,49.53a.41.41,0,0,1,.32-.18h3.82V64.93Z" transform="translate(-23.61 -33.65)"/><rect class="cls-2" x="70.46" y="15.7" width="4.18" height="15.58"/><polygon class="cls-2" points="86.64 31.28 81.27 22.97 81.27 31.28 77.13 31.28 77.13 15.72 81.25 15.72 86.64 24.11 86.64 15.72 90.8 15.72 90.8 31.28 86.64 31.28"/><rect class="cls-2" x="93.23" y="15.7" width="4.18" height="15.58"/><polygon class="cls-2" points="109.42 31.28 104.04 22.97 104.04 31.28 99.91 31.28 99.91 15.72 104.02 15.72 109.42 24.11 109.42 15.72 113.57 15.72 113.57 31.28 109.42 31.28"/><path class="cls-2" d="M150.11,64.48v-.42a7.78,7.78,0,0,1-3.6.87,7.57,7.57,0,0,1-3.06-.61,7.55,7.55,0,0,1-4.09-4.14,8,8,0,0,1-.59-3.06,7.73,7.73,0,0,1,.6-3A7.93,7.93,0,0,1,141,51.58a7.62,7.62,0,0,1,2.47-1.7,7.51,7.51,0,0,1,3-.62,7.44,7.44,0,0,1,3.31.76,8.19,8.19,0,0,1,2.72,2.12l-3.22,2.16a4.32,4.32,0,0,0-1.3-.91,3.71,3.71,0,0,0-1.51-.31,3.65,3.65,0,0,0-1.55.33,4,4,0,0,0-1.23.89,3.77,3.77,0,0,0-.81,1.28,4.09,4.09,0,0,0-.3,1.56,4.16,4.16,0,0,0,.3,1.56,3.89,3.89,0,0,0,.82,1.3,4.05,4.05,0,0,0,1.24.88,3.52,3.52,0,0,0,1.55.34,3.89,3.89,0,0,0,1.7-.4,3.77,3.77,0,0,0,1.35-1.13H147V56.13h6.47v8.35Z" transform="translate(-23.61 -33.65)"/><polygon class="cls-2" points="0.03 15.61 0.03 49.91 10.88 49.91 10.88 30.35 15.64 34.93 23.27 27.16 11.54 15.61 0.03 15.61"/><polygon class="cls-1" points="34.56 15.61 15.64 34.96 23.05 42.74 35.21 30.35 35.21 49.91 46.06 49.91 46.06 15.61 34.56 15.61"/><path class="cls-2" d="M35.86,40a6.13,6.13,0,1,0-6.13,6.31A6.21,6.21,0,0,0,35.86,40" transform="translate(-23.61 -33.65)"/><path class="cls-1" d="M69.68,40a6.13,6.13,0,1,0-6.13,6.31A6.22,6.22,0,0,0,69.68,40" transform="translate(-23.61 -33.65)"/><polygon class="cls-1" points="51.86 34.16 51.86 49.93 64.45 49.93 64.45 46.03 56.21 46.03 56.21 34.16 51.86 34.16"/><rect class="cls-1" x="65.95" y="34.16" width="4.22" height="15.77"/><path class="cls-1" d="M102,83.59a12.41,12.41,0,0,1-3-.35,14.32,14.32,0,0,1-2.8-1,.55.55,0,0,1-.19-.07c-.11-.07-.16-.11-.16-.14a1.23,1.23,0,0,1,.08-.15l.19-.33.27-.46.31-.53.61-1,.4-.69a2.65,2.65,0,0,1,.48.23,10.85,10.85,0,0,0,2.08.8,8.74,8.74,0,0,0,2.21.28l.7,0a2.42,2.42,0,0,0,.68-.15,1.2,1.2,0,0,0,.51-.35,1.07,1.07,0,0,0,.2-.69.61.61,0,0,0-.12-.37,1.14,1.14,0,0,0-.29-.29,1.65,1.65,0,0,0-.36-.22,2.68,2.68,0,0,0-.36-.16,4.87,4.87,0,0,0-.83-.23l-.84-.17c-.37-.09-.73-.18-1.09-.25s-.7-.17-1-.27-.67-.22-1-.34a5.07,5.07,0,0,1-.87-.44,3.82,3.82,0,0,1-1.32-1.33A4.5,4.5,0,0,1,96,72.65a4.73,4.73,0,0,1,.1-1,4.26,4.26,0,0,1,.32-.93,4.41,4.41,0,0,1,1.09-1.47,5.49,5.49,0,0,1,1.48-.9,8.24,8.24,0,0,1,1.72-.47,13.62,13.62,0,0,1,1.8-.13,12,12,0,0,1,2.91.36,9.56,9.56,0,0,1,2.74,1.17c-.32.54-.63,1.07-.93,1.6l-.91,1.59a17.34,17.34,0,0,0-2.16-.89,7.07,7.07,0,0,0-2.25-.35l-.6,0a1.84,1.84,0,0,0-.58.15,1,1,0,0,0-.44.33.92.92,0,0,0-.18.59.85.85,0,0,0,.12.46,1.11,1.11,0,0,0,.49.38,4.9,4.9,0,0,0,.87.29c.34.09.72.18,1.13.26L104,74c.44.12.87.25,1.31.4a7.33,7.33,0,0,1,1.25.53,5.43,5.43,0,0,1,1,.75,3.16,3.16,0,0,1,.73,1,3.75,3.75,0,0,1,.29,1,7,7,0,0,1,.07,1,4.5,4.5,0,0,1-.59,2.41,4.39,4.39,0,0,1-1.55,1.48,6.51,6.51,0,0,1-2.17.77,13,13,0,0,1-2.41.22" transform="translate(-23.61 -33.65)"/><polygon class="cls-1" points="86.25 34.16 86.25 37.78 86.53 38.06 90.84 38.06 90.84 49.93 95.1 49.93 95.1 38.06 99.41 38.06 99.69 37.78 99.69 34.16 86.25 34.16"/><path class="cls-1" d="M130,83.59a12.35,12.35,0,0,1-3-.35,14.42,14.42,0,0,1-2.81-1l-.19-.07c-.1-.07-.15-.11-.15-.14a1.23,1.23,0,0,1,.08-.15l.19-.33a4.89,4.89,0,0,1,.27-.46l.3-.53.61-1c.2-.32.33-.55.41-.69a3.49,3.49,0,0,1,.48.23,11,11,0,0,0,2.07.8,8.88,8.88,0,0,0,2.22.28l.69,0a2.34,2.34,0,0,0,.68-.15,1.09,1.09,0,0,0,.51-.35,1,1,0,0,0,.2-.69.67.67,0,0,0-.11-.37,1.14,1.14,0,0,0-.29-.29,1.93,1.93,0,0,0-.36-.22,2.3,2.3,0,0,0-.37-.16,4.76,4.76,0,0,0-.82-.23l-.84-.17c-.37-.09-.74-.18-1.09-.25s-.71-.17-1-.27-.67-.22-1-.34a4.82,4.82,0,0,1-.88-.44,3.79,3.79,0,0,1-1.31-1.33,4.49,4.49,0,0,1-.49-2.23,4.75,4.75,0,0,1,.11-1,4.23,4.23,0,0,1,.31-.93,4.58,4.58,0,0,1,1.1-1.47,5.34,5.34,0,0,1,1.48-.9,8,8,0,0,1,1.71-.47,13.62,13.62,0,0,1,1.8-.13,12,12,0,0,1,2.92.36,9.51,9.51,0,0,1,2.73,1.17c-.32.54-.63,1.07-.92,1.6s-.61,1-.92,1.59a16.62,16.62,0,0,0-2.15-.89,7.12,7.12,0,0,0-2.25-.35l-.6,0a1.9,1.9,0,0,0-.59.15,1.11,1.11,0,0,0-.44.33,1,1,0,0,0-.17.59.85.85,0,0,0,.12.46,1.14,1.14,0,0,0,.48.38,5.52,5.52,0,0,0,.87.29c.35.09.73.18,1.14.26l1.28.3c.43.12.87.25,1.31.4a6.91,6.91,0,0,1,1.24.53,5.84,5.84,0,0,1,1,.75,3.32,3.32,0,0,1,.73,1,3.37,3.37,0,0,1,.28,1,7,7,0,0,1,.08,1,4.12,4.12,0,0,1-2.14,3.89,6.51,6.51,0,0,1-2.17.77,13.1,13.1,0,0,1-2.41.22" transform="translate(-23.61 -33.65)"/><rect class="cls-2" x="136.41" y="15.52" width="1.5" height="34.48" rx="0.72"/></svg>