<svg id="Capa_1" data-name="Capa 1" xmlns="http://www.w3.org/2000/svg" viewBox="0 0 22 23"><defs><style>.cls-1{fill:#00656e;}</style></defs><title>Linkedin y mail</title><path class="cls-1" d="M0,11.5c0-3,0-6.07,0-9.11a4.18,4.18,0,0,1,.07-1A1.81,1.81,0,0,1,2,0L14.4,0,20,0a1.85,1.85,0,0,1,2,2q0,9.42,0,18.85a2.14,2.14,0,0,1-.55,1.59,1.73,1.73,0,0,1-1.26.54H1.82A1.79,1.79,0,0,1,0,21.17c0-1.52,0-3,0-4.55Zm11.7-1.35c0-.4,0-.72,0-1s-.08-.36-.35-.36H9.07c-.29,0-.37.11-.37.38,0,.91,0,1.83,0,2.74v7.49c0,.24,0,.46.33.45.86,0,1.72,0,2.58,0,.24,0,.33-.09.33-.33,0-.41,0-.83,0-1.25,0-1.39,0-2.79,0-4.19a2.81,2.81,0,0,1,.55-1.81,1.83,1.83,0,0,1,1.84-.65,1.36,1.36,0,0,1,1,1.2A5.15,5.15,0,0,1,15.56,14c0,1.58,0,3.16,0,4.75,0,1,0,1,1.06,1h2.15c0-.2,0-.34,0-.49,0-1.93,0-3.86,0-5.8a11.25,11.25,0,0,0-.17-2A3.08,3.08,0,0,0,17,9,4.45,4.45,0,0,0,11.7,10.15ZM6.41,19.66V17.32q0-4.12,0-8.26c0-.34-.09-.46-.45-.45-.75,0-1.5,0-2.25,0-.54,0-.54,0-.54.53v9.79c0,.87,0,.71.74.73S5.55,19.66,6.41,19.66ZM2.75,5.09A2.08,2.08,0,0,0,4.83,7.23,2.12,2.12,0,0,0,6.88,5,2.11,2.11,0,0,0,4.8,2.92,2.08,2.08,0,0,0,2.75,5.09Z"/></svg>