<svg id="Capa_1" data-name="Capa 1" xmlns="http://www.w3.org/2000/svg" viewBox="0 0 22 17"><defs><style>.cls-1{fill:#00656e;}</style></defs><title>Linkedin y mail</title><path class="cls-1" d="M11,0H21c.78,0,1,.2,1,1q0,6.32,0,12.63c0,.79,0,1.58,0,2.37s-.25.95-.94.95H.93C.3,16.94,0,16.67,0,16V.88C0,.23.25,0,.89,0Zm9.26,2.65-.4.28L11.87,9A1.33,1.33,0,0,1,10.1,9L2.46,3.16c-.2-.16-.41-.31-.67-.5,0,.18,0,.28,0,.38,0,3.92,0,7.83,0,11.75,0,.37.14.44.48.44H19.75c.39,0,.5-.11.5-.5,0-3.5,0-7,0-10.5ZM18.76,1.8l-.05-.08H3.15c.19.15.29.25.4.33,2.36,1.81,4.73,3.61,7.08,5.43a.5.5,0,0,0,.72,0q3-2.31,6-4.6Z"/></svg>