<svg id="Capa_1" data-name="Capa 1" xmlns="http://www.w3.org/2000/svg" xmlns:xlink="http://www.w3.org/1999/xlink" viewBox="0 0 599.04 515.55"><defs><style>.cls-1,.cls-26,.cls-48{fill:none;}.cls-2{clip-path:url(#clip-path);}.cls-3{fill:url(#Degradado_sin_nombre_2);}.cls-4{clip-path:url(#clip-path-2);}.cls-5{fill:#817069;}.cls-6{fill:#6b5e58;}.cls-7{fill:#85786f;}.cls-8{fill:#4a3f3b;}.cls-9{fill:#cec1b9;}.cls-10{fill:#857870;}.cls-11{fill:#554a44;}.cls-12{fill:#cbbeb6;}.cls-13{fill:#88776f;}.cls-14{fill:#645953;}.cls-15{fill:#776a64;}.cls-16{fill:#91827b;}.cls-17{fill:#433a35;}.cls-18{fill:#009e93;}.cls-19{fill:#2f2a3a;}.cls-20{fill:#ebb994;}.cls-21{fill:#2d2d2d;}.cls-22{fill:#ea8221;}.cls-23{fill:#212121;}.cls-24{fill:#0c0c0c;}.cls-25{fill:#d8a482;}.cls-25,.cls-42{opacity:0.46;isolation:isolate;}.cls-26{stroke:#dda27a;}.cls-26,.cls-48{stroke-linecap:round;stroke-miterlimit:10;stroke-width:2px;}.cls-27{fill:#463335;}.cls-28{fill:#fff;}.cls-29{fill:#c9c9c9;}.cls-30{fill:#d3d3d3;}.cls-31{fill:#a5a5a4;}.cls-32{fill:#828282;}.cls-33{fill:#00656f;}.cls-34{fill:#00a099;}.cls-35{fill:#d1d1d1;}.cls-36{fill:#88c1b9;}.cls-37{fill:#ffffdf;}.cls-38{fill:#fbfdff;}.cls-39{fill:#8b8b8c;}.cls-40{fill:#564b47;}.cls-41{fill:#f5ba5e;}.cls-42{fill:#b58368;}.cls-43{fill:#515150;}.cls-44{fill:#322b28;}.cls-45{fill:#664110;}.cls-46{fill:#fffdff;}.cls-47{fill:#382f2d;}.cls-48{stroke:#000;}.cls-49{fill:url(#Degradado_sin_nombre_5);}.cls-50{fill:#8a8a8a;}.cls-51{fill:#454449;}.cls-52{fill:#131313;}.cls-53{fill:#b6b6b6;}.cls-54{fill:url(#Degradado_sin_nombre_7);}.cls-55{fill:#181818;}.cls-56{fill:url(#Degradado_sin_nombre_7-2);}.cls-57{fill:url(#Degradado_sin_nombre_5-2);}.cls-58{fill:url(#Degradado_sin_nombre_7-3);}.cls-59{fill:url(#Degradado_sin_nombre_7-4);}</style><clipPath id="clip-path" transform="translate(24.32)"><path class="cls-1" d="M171.28,2.77,458.52,77.08c49.66,12.85,78.74,64.06,64.17,113L478.14,340.3A90.68,90.68,0,0,1,391,405l-298.7-.5C36.67,404.4-4.19,352.57,9,298.83L66.08,65.56C77.31,19,124.74-9.27,171.28,2.77Z"/></clipPath><linearGradient id="Degradado_sin_nombre_2" x1="45.8" y1="1343.92" x2="-487.44" y2="1845.07" gradientTransform="matrix(1, 0, 0, -1, 539.06, 1885.26)" gradientUnits="userSpaceOnUse"><stop offset="0.29" stop-color="#00656e"/><stop offset="0.41" stop-color="#00767a"/><stop offset="0.62" stop-color="#008d89"/><stop offset="0.82" stop-color="#009a92"/><stop offset="1" stop-color="#009f95"/></linearGradient><clipPath id="clip-path-2" transform="translate(24.32)"><path class="cls-1" d="M169,2.3,456.27,76.61c49.66,12.85,78.75,64.06,64.18,113L475.86,339.83a90.66,90.66,0,0,1-87.17,64.7L90,404c-55.61-.14-96.48-52-83.31-105.72L63.8,65C75,18.51,122.46-9.79,169,2.3Z"/></clipPath><linearGradient id="Degradado_sin_nombre_5" x1="-390.28" y1="1569.4" x2="-382.54" y2="1659.05" gradientTransform="matrix(0.13, 0.99, 0.99, -0.13, -1395.37, 863.73)" gradientUnits="userSpaceOnUse"><stop offset="0" stop-color="#fff"/><stop offset="1" stop-color="#e6e6e6"/></linearGradient><linearGradient id="Degradado_sin_nombre_7" x1="-587.5" y1="1598.34" x2="-585.65" y2="1598.34" gradientTransform="matrix(0.99, 0.13, 0.13, -0.99, 534.64, 1893.61)" gradientUnits="userSpaceOnUse"><stop offset="0" stop-color="#fff"/><stop offset="0.3" stop-color="#b6b6b6"/><stop offset="0.89" stop-color="#666"/></linearGradient><linearGradient id="Degradado_sin_nombre_7-2" x1="-587.5" y1="1595.54" x2="-585.65" y2="1595.54" xlink:href="#Degradado_sin_nombre_7"/><linearGradient id="Degradado_sin_nombre_5-2" x1="-2591.48" y1="1561.32" x2="-2583.74" y2="1650.98" gradientTransform="matrix(-0.99, -0.13, 0.13, -0.99, -2399.66, 1534.83)" xlink:href="#Degradado_sin_nombre_5"/><linearGradient id="Degradado_sin_nombre_7-3" x1="-2768.24" y1="1304.41" x2="-2766.39" y2="1304.41" gradientTransform="translate(-2159.94 1892.53) rotate(172.52)" xlink:href="#Degradado_sin_nombre_7"/><linearGradient id="Degradado_sin_nombre_7-4" x1="-2768.24" y1="1301.6" x2="-2766.39" y2="1301.6" gradientTransform="translate(-2159.94 1892.53) rotate(172.52)" xlink:href="#Degradado_sin_nombre_7"/></defs><g class="cls-2"><path class="cls-3" d="M169.75,2.77,457,77.08c49.66,12.85,78.74,64.06,64.17,113L476.61,340.3A90.66,90.66,0,0,1,389.43,405l-298.69-.5c-55.6-.1-96.46-51.93-83.31-105.67L64.52,65.56C75.78,19,123.2-9.27,169.75,2.77Z" transform="translate(24.32)"/><g class="cls-4"><path class="cls-5" d="M-23.15,411.16c1,.69,10.33,1.83,11.85,1.93,12.23.81,24.55.94,36.85,1.07,58.58.64,93.08-5,151.65-4.38,15.19.17,62.68,6,77.8,5.11,17.56-1.06,26.71-3,43.16-6.85,2.6-.61,5.58-1.58,5.75-3.26s-3.55-24.75-6-25.57c-6-2-11,17.88-17,15.88-6.48-2.17-13.11-4.38-20.4-5.19-7.73-.86-15.67-.1-23.45.6-69.39,6.18-130-9.48-200.07-11.06-10.9-.25-32.57,16.23-42.21,19.68C-10.68,401.09-29.11,407-23.15,411.16Z" transform="translate(24.32)"/><path class="cls-6" d="M126.13,281.53l18.67-21.78s6.3-8.47,12.83-8.23,16.21,6,18.63,10.65,8.71,15.73,11.62,18.15S202.15,291,203.6,293.14s14.77,27.59,14.77,27.59l2.42,16.45s-8.72,26.14-9.44,26.62-24,20.57-25.41,20.33-27.59-8.72-27.59-8.72l-16-31.74s-17-28.51-16.25-30.2S126.13,281.53,126.13,281.53Z" transform="translate(24.32)"/><path class="cls-7" d="M156.66,253.94s9,14.28,9,17.42,1.46,26.86,2.18,30.49,5.75,13.31,5.66,16,0,24.66,0,24.66-15.1-9.9-16.79-11.83-3.87-16.46-6.77-21.54a38.39,38.39,0,0,0-8-9.19l1.21,14.52s-6.53-17.43-6.78-19.85S132.5,284.7,132.5,283s5.33-11.37,5.33-11.37L154,254Z" transform="translate(24.32)"/><path class="cls-8" d="M166.08,253.94s6,13.07,7.37,16.7,5.47,10.4,6.44,12.34,13.31,9.92,13.31,9.92,4.11,4.11,4.11,12.82,1,18.63,1,18.63-7.5-13.79-8.23-14.51-4.35-3.87-3.87-1,3.63,10.89,4.12,14,0,12.34-.49,17.18.23,13.3-7.63,11.13-13.69-5.57-16.1-6.54-9.9-6.77-11.11-8.47-9.7-12.92-9.7-12.92,9.7,26.45,9.94,28.28S177,381.32,177,381.32l10.41,2.74,24-20.33,9.44-26.62-4-19.36s-11.78-25.4-14.69-28.07-12.58-9.19-16.69-13.79-11.2-17.18-12-18.63S166.08,253.94,166.08,253.94Z" transform="translate(24.32)"/><path class="cls-9" d="M155.37,329.14c.93-7.4-2.74-14.49-4.57-21.71-.59-2.33-1-4.69-1.4-7.06a36.27,36.27,0,0,0-1-5.66c-.86-2.55-.9-.31-.89,1.25a61,61,0,0,0,1.24,11.44,105.18,105.18,0,0,0,2.91,11.06q.87,2.76,1.82,5.46C154,325.37,155.37,327.62,155.37,329.14Z" transform="translate(24.32)"/><path class="cls-6" d="M63.33,281.53,82,259.75s6.29-8.47,12.83-8.23,16.21,6,18.63,10.65,8.71,15.73,11.61,18.15S139.35,291,140.8,293.14s14.72,27.59,14.72,27.59l2.42,16.45s-8.67,26.12-9.42,26.62-24,20.57-25.41,20.33-27.59-8.72-27.59-8.72l-16-31.74s-17-28.51-16.25-30.2S63.33,281.53,63.33,281.53Z" transform="translate(24.32)"/><path class="cls-7" d="M93.86,253.94s9,14.28,9,17.42,1.45,26.86,2.18,30.49,5.74,13.31,5.65,16,0,24.66,0,24.66-15.1-9.9-16.79-11.83S90,314.22,87.07,309.14a38.17,38.17,0,0,0-8-9.19l1.21,14.52S73.74,297,73.5,294.62,69.63,284.7,69.63,283,75,271.64,75,271.64L91.17,254Z" transform="translate(24.32)"/><path class="cls-8" d="M103.28,253.94s6,13.07,7.36,16.7,5.48,10.4,6.45,12.34,13.31,9.92,13.31,9.92,4.11,4.11,4.11,12.82,1,18.63,1,18.63-7.5-13.79-8.23-14.51-4.35-3.87-3.87-1,3.63,10.89,4.11,14,0,12.34-.48,17.18.23,13.3-7.63,11.13-13.69-5.57-16.1-6.54-9.91-6.77-11.11-8.47-9.68-12.84-9.68-12.84,9.7,26.45,9.94,28.28,21.77,29.82,21.77,29.82l10.41,2.74,24-20.33,9.43-26.62-3.94-19.36s-11.79-25.4-14.69-28.07-12.58-9.19-16.7-13.79-11.19-17.18-12-18.63S103.28,253.94,103.28,253.94Z" transform="translate(24.32)"/><path class="cls-9" d="M92.57,329.14c.93-7.4-2.74-14.49-4.57-21.71-.59-2.33-1-4.69-1.4-7.06a36.27,36.27,0,0,0-1-5.66c-.86-2.55-.9-.31-.89,1.25A61,61,0,0,0,86,307.4a105.18,105.18,0,0,0,2.91,11.06q.87,2.76,1.82,5.46C91.22,325.37,92.57,327.62,92.57,329.14Z" transform="translate(24.32)"/><path class="cls-6" d="M-14.37,402.72s9.07-45,19.23-69,12.59-30.13,21.78-40.05,16.7-16,22-16.46,12.34,1,16.22,9S79.64,321.3,82.52,327.1,102.85,362,102.85,362l12.58,25.41s-8.71,12.82-9.68,13.06-43.8,6.29-49.12,7S7,410.32,7,410.32H-8.69l-9-1.93Z" transform="translate(24.32)"/><path class="cls-10" d="M46.67,281.53s-3.87,16.21-3.87,19.36-1,24.68-1.45,28.31-5.81,19.6-6.05,22-2.9,8.22-4.11,9.43S-6.08,394.75-6.08,394.75s11.37-50.09,16.7-62.91,16-33.15,22.5-39.93A58.74,58.74,0,0,1,46.67,281.53Z" transform="translate(24.32)"/><path class="cls-11" d="M50.3,277.17s5.81,3.15,9,6.78,6.29,6.77,6.53,10.16-2.66,6.05,0,10.4,9.44,25.17,10.89,28.32,3.39,8.62,2.9,10.84a9.25,9.25,0,0,1-4.35,5.61c-1.7.73-11.38,1.94-11.38,1.94A50.63,50.63,0,0,1,62,338.15c0-6.78-5.08-16.21-5.08-16.21s1.21,20.81,0,23.71-7.26,8.23-10.17,9.92-18.63,22.26-22.26,26.62S5.82,398.64,4.85,399.61s-15,7.75-15,7.75,41.62,1,42.83,0,43.8-5.57,45-5.81l26.37-5.32s7-6.78,7.5-7.51,1.94-3.38,1.94-3.38l-15-33.45s-15-26.1-16-28.59-12.61-29.89-14.28-33.53-2.77-7.71-6.56-9.72a34.29,34.29,0,0,0-7.74-2.87Z" transform="translate(24.32)"/><path class="cls-9" d="M27,298A47.72,47.72,0,0,0,22,306c-9.56,18-19.24,36.39-23,56.43-1.4,7.39-2,15-4.34,22.12,4.83-9.29,5.83-20.14,8.83-30.24.94-3.23,2.08-6.4,3.26-9.55,4.8-12.93,10.18-25.75,17.82-37.23,1.49-2.23,3.06-4.41,4.53-6.67,2.14-3.27,4.75-7.09,5.88-10.8C32.37,292.8,29.37,295.14,27,298Z" transform="translate(24.32)"/><path class="cls-6" d="M299.66,393.72s-9.08-45-19.24-69-12.58-30.13-21.78-40.05-16.69-16-22-16.45-12.34,1-16.21,8.95-14.78,35.13-17.68,40.93S182.42,353,182.42,353l-12.58,25.41s8.68,12.82,9.68,13.06,43.79,6.3,49.12,7,49.6,2.91,49.6,2.91H294l9-1.94Z" transform="translate(24.32)"/><path class="cls-10" d="M237.66,277s-3.88,16.21-3.88,19.36-1,24.68-1.45,28.31-5.81,19.6-6,22-2.9,8.23-4.11,9.44S185,390.19,185,390.19s11.38-50.09,16.7-62.91,16-33.15,22.5-39.93A59,59,0,0,1,237.66,277Z" transform="translate(24.32)"/><path class="cls-11" d="M233.78,268.2s13.31,7.56,16.46,11.19,6.29,6.77,6.53,10.16-2.66,6,0,10.41,9.44,25.16,10.89,28.31,3.39,8.63,2.9,10.85a9.29,9.29,0,0,1-4.35,5.6c-1.69.73-11.37,1.94-11.37,1.94a50.22,50.22,0,0,1-1.94-13.07c0-6.77-5.08-16.21-5.08-16.21s1.21,20.81,0,23.71-7.3,8.21-10.16,9.92S219,373.3,215.39,377.63s-18.63,16.46-19.6,17.42-15,7.75-15,7.75,41.62,1,42.83,0,43.8-5.57,45-5.81L295,391.67s7-6.78,7.51-7.5,1.93-3.39,1.93-3.39L289.52,347.3s-9-25.39-10.08-27.89-13.33-26.17-15-29.81-8-12.14-11.84-14.15-9.27-5.51-9.27-5.51Z" transform="translate(24.32)"/><path class="cls-9" d="M218,293.48a46.61,46.61,0,0,0-5,8c-9.56,18-19.24,36.39-23,56.43-1.39,7.39-2,15-4.34,22.12,4.9-9.34,5.9-20.13,8.9-30.24.94-3.23,2.08-6.4,3.25-9.55C202.57,327.32,208,314.5,215.6,303c1.48-2.24,3.06-4.42,4.52-6.68,2.14-3.27,4.75-7.09,5.88-10.8C223.35,288.24,220.35,290.58,218,293.48Z" transform="translate(24.32)"/><path class="cls-9" d="M240.93,328c.25,2,.65,3.92.76,5.9a20,20,0,0,1-2.43,10.63c4-3.22,4.84-9.07,4.25-14.2-.28-2.51-.84-5-1.25-7.46-.33-1.92,0-5.4-1.06-6.91C240.07,319.56,240.44,324.21,240.93,328Z" transform="translate(24.32)"/><path class="cls-6" d="M66.76,378.3s47.43-42.59,50.33-45,17.42-15,25.16-15.49,13.07,3.39,19.85,0A73.19,73.19,0,0,1,183.39,311c6.78-1,8.71-4.36,21.78,0s14,6.6,23.23,14,24,16.78,28.31,22.1,11.37,5.57,19.12,8,6.05,7.74,12.34,14,7.26,9.13,11.13,15.49a20.3,20.3,0,0,1,2.9,12.58s-76.43,9.39-86.11,8.9-44.51-8.18-56.12-6.73-21.84-4-34.06-3.55-35,2.92-38.94-1-22.15-8.62-22.15-8.62Z" transform="translate(24.32)"/><path class="cls-10" d="M150.24,322.42S126,332.58,124.35,334,94.1,360.9,94.1,360.9L74.26,379l4.35,9h9.91L98,381.73s10.65-9.42,11.62-11.11-.49,3.38-2.18,6.29-5.08,7.19-5.08,9.28,2.66,4.75,5.56,1.85,18.15-11.62,19.36-12.83,10.41-10.52,11.13-11.43,7-3.57,7-3.57S162.3,328.1,162.54,325s.73-4.51-1.21-4.51S150.24,322.42,150.24,322.42Z" transform="translate(24.32)"/><path class="cls-10" d="M168.15,323.15s-3.88,18.82-3.88,19.33-10.16,25.68-10.4,26.64-8.71,19.6-10.41,21.54-9.67,8.71-5.32,9.92,19.6,1,27.1,0,24.22-3,24.82-6S188,381,186.78,375,181,353.3,181,353.3s-1.93-18-1.93-19-2.42-5.81-2.42-5.81-2.18,14-2.91,14-3.39-3.6-3.39-4.33,1-5.81.73-9.2A9.69,9.69,0,0,0,168.15,323.15Z" transform="translate(24.32)"/><path class="cls-9" d="M135.24,333.47a75.5,75.5,0,0,0-20,13.71l-7,6.21c-9,7.91-18,15.88-25.3,25.33,3.76-6,7.57-12,12.64-16.87,3.55-3.43,7.66-6.25,11.3-9.6,1.86-1.73,3.6-3.59,5.42-5.36a85.91,85.91,0,0,1,28.91-18.51,50.77,50.77,0,0,1,9.23-3c-2,1.76-5.12,2.82-7.46,4Z" transform="translate(24.32)"/><path class="cls-12" d="M157,371.75c1.51-5.4,5.57-10.74,7.7-16,2.25-5.59,2.08-15.1,2.83-21.09.29-2.28,1.94-8.71,1.94-8.71a15.8,15.8,0,0,0-2.53,4.67c-1.51,6.44-2.75,12.94-4.29,19.37Q160,360.91,157,371.75Z" transform="translate(24.32)"/><path class="cls-13" d="M191.8,319.44,204,335.91l.76-8.56,3.56,3.26a8.18,8.18,0,0,0,1.12-5.38l48.08,48.07c5,5,10.11,10.17,12.77,16.71a103.11,103.11,0,0,1-40-4.75c-4.32-1.41-8.64-3.17-12-6.2-4.34-3.89-6.71-9.47-8.94-14.86-3.21-7.78-6.24-15.65-10-23.15a78.56,78.56,0,0,1-4.47-10C193.79,328.1,193.57,321.75,191.8,319.44Z" transform="translate(24.32)"/><path class="cls-14" d="M195.11,313.63c12.81.74,21.6,13.41,33.71,17.64,5.46,1.91,11.88,2.26,15.91,6.41,3.26,3.37,4.15,8.54,7.45,11.87,3.06,3.08,7.58,4,11.6,5.68,6.91,2.83,12.61,7.91,18.17,12.89,7.87,7.06,16.11,14.69,18.89,24.89,2.4-13.59-7.61-26.29-18.63-34.59s-24-14.69-32-25.88c-1.72-2.4-3.26-5.06-5.7-6.73s-5.27-2.13-8-2.75a77.36,77.36,0,0,1-22.57-8.94c-4.4-2.6-7.09-4.07-12.07-5.24-5.44-1.28-17.9-1.4-30.22,5C176.58,315.85,189.7,313.3,195.11,313.63Z" transform="translate(24.32)"/><path class="cls-15" d="M142.25,402.3a75.82,75.82,0,0,1,7.08-10.51,38,38,0,0,1,9.67-9,19.27,19.27,0,0,1,12.66-2.9c7.42,1.13,12.83,7.38,17.56,13.21l7.82,9.64c-8,.23-15.8-2.09-23.77-2.09Z" transform="translate(24.32)"/><path class="cls-16" d="M146,398.84l6.78,1.09c3,.47,6.19.93,8.94-.35a10,10,0,0,0,4.95-5.92,24.58,24.58,0,0,0,1.08-7.81c0-2.25.23-4.92,2.17-6.07-3.28-1.38-7.06,0-10.11,1.83a37.55,37.55,0,0,0-9.6,8.2C149.8,390.3,145,398.68,146,398.84Z" transform="translate(24.32)"/><path class="cls-15" d="M179.74,402.3a88,88,0,0,1,8.12-12.05A43.67,43.67,0,0,1,199,380a22.14,22.14,0,0,1,14.57-3.37c8.51,1.3,14.73,8.47,20.15,15.16l9,11.07c-9.14.26-18.14-2.4-27.28-2.4Z" transform="translate(24.32)"/><path class="cls-16" d="M184,398.3l7.78,1.25c3.43.55,7.1,1.07,10.26-.4a11.56,11.56,0,0,0,5.68-6.79,28.84,28.84,0,0,0,1.25-9c0-2.58.26-5.65,2.48-7-3.76-1.58-8.1,0-11.6,2.1a43.36,43.36,0,0,0-11,9.42C188.4,388.45,182.88,398.07,184,398.3Z" transform="translate(24.32)"/><path class="cls-15" d="M173.45,402.5a49.7,49.7,0,0,1,4.69-7,25.12,25.12,0,0,1,6.42-6,12.81,12.81,0,0,1,8.4-1.93c4.92.75,8.52,4.9,11.65,8.76l5.19,6.4c-5.28.16-10.48-1.38-15.77-1.38Z" transform="translate(24.32)"/><path class="cls-16" d="M175.93,400.18l4.5.72c2,.32,4.11.62,5.93-.23a6.69,6.69,0,0,0,3.29-3.92,16.28,16.28,0,0,0,.72-5.19c0-1.49.15-3.27,1.43-4-2.17-.92-4.68,0-6.7,1.21a24.83,24.83,0,0,0-6.37,5.45C178.45,394.52,175.26,400.07,175.93,400.18Z" transform="translate(24.32)"/><path class="cls-12" d="M200.69,341.42c5.54,10.93,8.83,23,15.4,33.35-.34-8.73-3-17.15-6.85-25-3.44-7-8.09-16.64-14-21.83C195.22,332.58,198.68,337.44,200.69,341.42Z" transform="translate(24.32)"/><path class="cls-5" d="M247.13,417.63c1,.7,10.34,1.83,11.86,1.93,12.23.81,24.55.94,36.85,1.08,58.57.63,93.07-5,151.65-4.38,15.19.16,62.68,6,77.8,5.1,17.56-1.06,26.71-3,43.16-6.84,2.59-.62,5.58-1.59,5.75-3.27s-3.55-24.75-6-25.57c-6-2-11,17.88-17,15.88-6.48-2.17-13.11-4.38-20.4-5.19-7.73-.86-15.67-.09-23.45.6-69.39,6.18-130-9.47-200.08-11.06-10.9-.25-32.56,16.23-42.2,19.68C259.61,407.56,241.18,413.5,247.13,417.63Z" transform="translate(24.32)"/><path class="cls-6" d="M396.42,288l18.67-21.78s6.29-8.47,12.83-8.23,16.21,6,18.63,10.65,8.71,15.73,11.61,18.15,14.28,10.65,15.73,12.82,14.76,27.59,14.76,27.59l2.42,16.45s-8.71,26.14-9.43,26.62-24,20.57-25.41,20.33-27.59-8.71-27.59-8.71l-16-31.74s-17-28.52-16.25-30.21S396.42,288,396.42,288Z" transform="translate(24.32)"/><path class="cls-7" d="M427,260.41s9,14.28,9,17.43,1.45,26.86,2.18,30.49,5.74,13.3,5.65,16,0,24.66,0,24.66-15.1-9.89-16.79-11.83-3.87-16.45-6.78-21.54a38.17,38.17,0,0,0-8-9.19L413.42,321s-6.54-17.42-6.78-19.84-3.87-9.92-3.87-11.62,5.32-11.37,5.32-11.37l16.22-17.67Z" transform="translate(24.32)"/><path class="cls-8" d="M436.37,260.41s6,13.07,7.36,16.7,5.48,10.41,6.45,12.34,13.31,9.92,13.31,9.92,4.11,4.12,4.11,12.83,1,18.62,1,18.62-7.5-13.78-8.23-14.51-4.35-3.87-3.87-1,3.63,10.89,4.11,14,0,12.34-.48,17.18.23,13.31-7.63,11.13-13.69-5.57-16.1-6.53-9.91-6.78-11.12-8.47-9.69-12.93-9.69-12.93,9.69,26.45,9.94,28.28,21.77,29.82,21.77,29.82l10.41,2.74,24-20.33,9.43-26.62-4-19.28s-11.79-25.4-14.69-28.06-12.58-9.2-16.7-13.8-11.19-17.18-12-18.63S436.37,260.41,436.37,260.41Z" transform="translate(24.32)"/><path class="cls-9" d="M425.66,335.61c.93-7.4-2.74-14.49-4.57-21.71-.59-2.32-1-4.69-1.4-7a36.27,36.27,0,0,0-1-5.66c-.86-2.56-.9-.32-.89,1.24A60.15,60.15,0,0,0,419,313.87,105.18,105.18,0,0,0,422,324.93q.87,2.76,1.82,5.46C424.31,331.84,425.66,334.09,425.66,335.61Z" transform="translate(24.32)"/><path class="cls-6" d="M333.62,288l18.67-21.78s6.29-8.47,12.82-8.23,16.22,6,18.64,10.65,8.71,15.73,11.61,18.15,14.28,10.65,15.73,12.82,14.76,27.59,14.76,27.59l2.42,16.45s-8.71,26.14-9.44,26.62-23.95,20.57-25.4,20.33-27.59-8.71-27.59-8.71l-16-31.74s-17-28.52-16.25-30.21S333.62,288,333.62,288Z" transform="translate(24.32)"/><path class="cls-7" d="M364.15,260.41s9,14.28,9,17.43,1.37,26.86,2.13,30.46,5.74,13.3,5.65,16,0,24.66,0,24.66-15.09-9.89-16.78-11.83-3.87-16.45-6.78-21.54a38.17,38.17,0,0,0-8-9.19l1.21,14.52S344,303.5,343.8,301.08s-3.87-9.92-3.87-11.62,5.32-11.37,5.32-11.37l16.27-17.68Z" transform="translate(24.32)"/><path class="cls-8" d="M373.57,260.41s6,13.07,7.36,16.7,5.48,10.41,6.45,12.34,13.31,9.92,13.31,9.92,4.11,4.12,4.11,12.83,1,18.62,1,18.62-7.5-13.78-8.23-14.51-4.36-3.87-3.87-1,3.63,10.89,4.11,14,0,12.34-.48,17.18.23,13.31-7.63,11.13-13.69-5.57-16.1-6.53-9.91-6.78-11.12-8.47-9.7-12.93-9.7-12.93,9.7,26.45,9.94,28.28,21.77,29.82,21.77,29.82l10.42,2.74,23.92-20.23,9.44-26.62-3.94-19.38s-11.79-25.4-14.69-28.06-12.58-9.2-16.7-13.8-11.19-17.18-12-18.63S373.57,260.41,373.57,260.41Z" transform="translate(24.32)"/><path class="cls-9" d="M362.85,335.61c.94-7.4-2.73-14.49-4.57-21.71-.58-2.32-1-4.69-1.39-7a37.48,37.48,0,0,0-1-5.66c-.86-2.56-.9-.32-.89,1.24a61,61,0,0,0,1.23,11.44,105.22,105.22,0,0,0,2.92,11.06q.87,2.76,1.82,5.46C361.52,331.84,362.85,334.09,362.85,335.61Z" transform="translate(24.32)"/><path class="cls-6" d="M255.92,409.19s9.07-45,19.23-69,12.59-30.13,21.78-40,16.7-16,22-16.45,12.34,1,16.21,9,14.76,35.09,17.67,40.89,20.32,34.85,20.32,34.85l12.59,25.41S377,406.71,376,407s-43.8,6.3-49.12,7-49.61,2.91-49.61,2.91H261.6l-9-1.94Z" transform="translate(24.32)"/><path class="cls-10" d="M317,288s-3.87,16.21-3.87,19.36-1,24.68-1.45,28.31-5.81,19.6-6,22-2.91,8.23-4.12,9.44-37.31,34.19-37.31,34.19,11.37-50.09,16.7-62.92,16-33.15,22.5-39.93A58.55,58.55,0,0,1,317,288Z" transform="translate(24.32)"/><path class="cls-11" d="M320.59,283.64s5.81,3.15,9,6.78,6.3,6.77,6.54,10.16-2.66,6.05,0,10.41,9.44,25.16,10.89,28.31,3.38,8.63,2.9,10.85a9.22,9.22,0,0,1-4.36,5.6c-1.69.73-11.37,1.94-11.37,1.94a50.63,50.63,0,0,1-1.93-13.07c0-6.77-5.09-16.21-5.09-16.21s1.21,20.81,0,23.71S319.86,360.35,317,362s-18.63,22.26-22.26,26.62-18.63,16.46-19.6,17.43-15,7.74-15,7.74,41.62,1,42.83,0,43.79-5.57,45-5.81l26.38-5.32s7-6.78,7.5-7.5,1.94-3.39,1.94-3.39l-14.91-33.45s-15-26.09-16.09-28.6-12.6-29.89-14.27-33.52-2.77-7.72-6.56-9.73a34.29,34.29,0,0,0-7.74-2.87Z" transform="translate(24.32)"/><path class="cls-9" d="M297.26,304.52a46.61,46.61,0,0,0-5,8c-9.55,18-19.24,36.39-23,56.43-1.39,7.39-2,15-4.34,22.12,4.88-9.32,5.9-20.11,8.84-30.22.94-3.23,2.08-6.39,3.25-9.55,4.81-12.92,10.19-25.74,17.83-37.22,1.49-2.24,3.06-4.42,4.53-6.67,2.13-3.28,4.75-7.1,5.88-10.8C302.66,299.3,299.65,301.61,297.26,304.52Z" transform="translate(24.32)"/><path class="cls-6" d="M570,400.2s-9.08-45-19.24-69-12.58-30.12-21.78-40-16.7-16-22-16.45-12.34,1-16.21,9-14.76,35.09-17.67,40.9-20.32,34.84-20.32,34.84L440.14,384.9s8.72,12.82,9.68,13.07,43.8,6.29,49.13,7,49.6,2.91,49.6,2.91h15.73l9-1.94Z" transform="translate(24.32)"/><path class="cls-10" d="M507.94,283.44s-3.87,16.21-3.87,19.36-1,24.68-1.45,28.31-5.81,19.6-6,22-2.9,8.23-4.11,9.44-37.27,34.12-37.27,34.12,11.38-50.09,16.7-62.92,16-33.15,22.5-39.92A58.79,58.79,0,0,1,507.94,283.44Z" transform="translate(24.32)"/><path class="cls-11" d="M504.07,274.67s13.31,7.56,16.46,11.19,6.29,6.78,6.53,10.16-2.66,6,0,10.41,9.44,25.16,10.89,28.31,3.39,8.63,2.9,10.85a9.23,9.23,0,0,1-4.35,5.6c-1.7.73-11.38,1.94-11.38,1.94a50.63,50.63,0,0,1-1.93-13.07c0-6.77-5.08-16.21-5.08-16.21s1.21,20.81,0,23.72-7.26,8.22-10.17,9.92-18.63,22.26-22.26,26.61-18.63,16.46-19.6,17.43-15,7.74-15,7.74,41.62,1,42.83,0,43.8-5.57,45-5.81l26.37-5.32s7-6.78,7.5-7.5,1.94-3.39,1.94-3.39l-14.9-33.45s-9-25.39-10.07-27.89-13.33-26.17-15-29.8-8-12.14-11.84-14.16-9.27-5.51-9.27-5.51Z" transform="translate(24.32)"/><path class="cls-9" d="M488.24,300a47.72,47.72,0,0,0-4.94,8c-9.56,18-19.24,36.38-23,56.42-1.4,7.4-2,15-4.34,22.12,4.87-9.32,5.89-20.11,8.83-30.21.94-3.23,2.08-6.4,3.26-9.56,4.8-12.92,10.18-25.74,17.82-37.22,1.49-2.24,3.06-4.42,4.53-6.67,2.14-3.28,4.75-7.1,5.88-10.8C493.64,294.71,490.64,297.05,488.24,300Z" transform="translate(24.32)"/><path class="cls-9" d="M511.21,334.43c.26,2,.66,3.92.76,5.9A19.89,19.89,0,0,1,509.55,351c4-3.22,4.84-9.07,4.25-14.2-.29-2.51-.84-5-1.26-7.46-.32-1.92,0-5.4-1-6.91C510.36,326,510.72,330.68,511.21,334.43Z" transform="translate(24.32)"/><path class="cls-6" d="M337.05,384.79s47.42-42.59,50.33-45,17.42-15,25.16-15.49,13.07,3.39,19.85,0a72.89,72.89,0,0,1,21.29-6.77c6.77-1,8.71-4.35,21.78,0s14,6.6,23.23,14,23.95,16.78,28.31,22.11,11.37,5.56,19.12,8,6,7.74,12.34,14,7.26,9.12,11.13,15.48a20.3,20.3,0,0,1,2.9,12.58s-76.43,9.39-86.11,8.9-44.51-8.18-56.13-6.73-21.83-4-34.05-3.54-35,2.91-38.94-1-22.15-8.63-22.15-8.63Z" transform="translate(24.32)"/><path class="cls-10" d="M420.52,328.89s-24.2,10.17-25.89,11.62-30.25,26.86-30.25,26.86l-19.86,18.15,4.35,9h9.92l9.44-6.31s10.65-9.42,11.62-11.11-.49,3.39-2.18,6.29-5.08,7.2-5.08,9.28,2.66,4.75,5.56,1.85,18.15-11.61,19.36-12.82,10.41-10.53,11.13-11.44,7-3.57,7-3.57,16.94-32.11,17.18-35.17.72-4.51-1.21-4.51S420.52,328.89,420.52,328.89Z" transform="translate(24.32)"/><path class="cls-10" d="M438.43,329.62s-3.87,18.82-3.87,19.33-10.16,25.68-10.4,26.65-8.71,19.6-10.41,21.53-9.68,8.71-5.32,9.92,19.6,1,27.1,0,24.22-3,24.82-6-2.07-13.55-3.28-19.6-5.81-21.59-5.81-21.59-1.94-18.09-1.94-19.06S446.9,335,446.9,335s-2.17,14-2.9,14-3.39-3.6-3.39-4.33,1-5.81.73-9.19A9.7,9.7,0,0,0,438.43,329.62Z" transform="translate(24.32)"/><path class="cls-9" d="M405.52,339.94a75.54,75.54,0,0,0-20,13.71l-7,6.21c-9,7.91-18,15.88-25.3,25.33,3.76-6,7.57-12,12.64-16.87,3.55-3.43,7.66-6.25,11.29-9.6,1.87-1.72,3.61-3.58,5.43-5.36a85.91,85.91,0,0,1,28.91-18.51,50.09,50.09,0,0,1,9.23-3c-2,1.75-5.12,2.81-7.46,4Z" transform="translate(24.32)"/><path class="cls-12" d="M427.29,378.22c1.52-5.4,5.58-10.74,7.71-16,2.25-5.59,2.08-15.09,2.83-21.09.28-2.28,1.94-8.71,1.94-8.71a15.85,15.85,0,0,0-2.53,4.68c-1.51,6.43-2.75,12.93-4.29,19.36Q430.34,367.4,427.29,378.22Z" transform="translate(24.32)"/><path class="cls-13" d="M462.09,325.91l12.19,16.47.77-8.55,3.56,3.25a8.18,8.18,0,0,0,1.12-5.38l48,48.08c5,5,10.11,10.16,12.77,16.7a103.11,103.11,0,0,1-40-4.75c-4.32-1.41-8.64-3.16-12-6.19-4.34-3.9-6.71-9.48-8.94-14.87-3.22-7.77-6.24-15.65-10-23.15a77.18,77.18,0,0,1-4.47-10C464.08,334.57,463.86,328.22,462.09,325.91Z" transform="translate(24.32)"/><path class="cls-14" d="M465.4,320.1c12.8.74,21.6,13.41,33.71,17.65,5.46,1.91,11.88,2.25,15.91,6.41,3.26,3.37,4.15,8.53,7.45,11.86,3.06,3.09,7.58,4,11.6,5.69,6.91,2.83,12.61,7.9,18.17,12.89,7.87,7,16.11,14.69,18.89,24.88,2.4-13.59-7.61-26.28-18.63-34.59s-24-14.68-32-25.88c-1.73-2.4-3.26-5.06-5.7-6.73s-5.27-2.12-8.06-2.75a77.84,77.84,0,0,1-22.56-8.93c-4.4-2.61-7.09-4.08-12.07-5.25-5.44-1.27-17.91-1.4-30.22,5C446.87,322.3,460,319.78,465.4,320.1Z" transform="translate(24.32)"/><path class="cls-15" d="M412.52,408.81a77.27,77.27,0,0,1,7.07-10.51,38.35,38.35,0,0,1,9.67-9,19.36,19.36,0,0,1,12.67-2.9c7.41,1.14,12.83,7.38,17.56,13.21l7.82,9.64c-8,.23-15.8-2.09-23.77-2.09Z" transform="translate(24.32)"/><path class="cls-16" d="M416.29,405.3l6.78,1.09c3,.48,6.19.93,8.93-.35a10,10,0,0,0,5-5.91,24.64,24.64,0,0,0,1.08-7.82c0-2.25.23-4.92,2.16-6.07-3.27-1.38-7,0-10.1,1.83a37.56,37.56,0,0,0-9.62,8.23C420.09,396.78,415.28,405.15,416.29,405.3Z" transform="translate(24.32)"/><path class="cls-15" d="M450,408.74a87.38,87.38,0,0,1,8.11-12.06,44.06,44.06,0,0,1,11.1-10.3,22.21,22.21,0,0,1,14.53-3.33c8.52,1.3,14.74,8.47,20.16,15.16l9,11.07c-9.14.26-18.13-2.4-27.28-2.4Z" transform="translate(24.32)"/><path class="cls-16" d="M454.32,404.73l7.79,1.24c3.43.55,7.1,1.07,10.25-.4a11.51,11.51,0,0,0,5.69-6.79,28.84,28.84,0,0,0,1.25-9c0-2.58.25-5.65,2.48-7-3.76-1.59-8.1,0-11.6,2.09a43.2,43.2,0,0,0-11,9.43C458.69,394.93,453.17,404.54,454.32,404.73Z" transform="translate(24.32)"/><path class="cls-15" d="M443.73,409a50.64,50.64,0,0,1,4.7-7,25.24,25.24,0,0,1,6.41-6,12.85,12.85,0,0,1,8.41-1.93c4.92.76,8.51,4.9,11.65,8.77l5.19,6.4c-5.29.15-10.49-1.39-15.77-1.39Z" transform="translate(24.32)"/><path class="cls-16" d="M446.22,406.65l4.5.72c2,.32,4.11.62,5.93-.23a6.58,6.58,0,0,0,3.28-3.92,16.29,16.29,0,0,0,.73-5.19c0-1.49.15-3.26,1.43-4-2.17-.91-4.68,0-6.71,1.22a25.16,25.16,0,0,0-6.37,5.44C448.74,401,445.52,406.55,446.22,406.65Z" transform="translate(24.32)"/><path class="cls-12" d="M471,347.89c5.54,10.94,8.83,23,15.4,33.36-.34-8.73-3-17.16-6.86-25-3.43-7-8.08-16.64-14-21.83C465.52,339.05,469,343.91,471,347.89Z" transform="translate(24.32)"/></g><polygon class="cls-17" points="74.31 372.06 67.92 492.81 110.88 492.81 115.04 424.85 121.32 492.81 170.21 496.27 165.28 366.43 75.49 362.82 74.31 372.06"/><path class="cls-18" d="M297,210.37a10.85,10.85,0,0,1-4.32-.78,4.31,4.31,0,0,1-1.16-.74,1.17,1.17,0,0,1-.17-1.63,1.37,1.37,0,0,1,.17-.17,3.61,3.61,0,0,1,1.43-.86c.44-.15.9-.26,1.36-.39a.34.34,0,0,1,.41.14c.62.82,1.26,1.63,1.89,2.44.32.42.65.42,1,0,.64-.82,1.28-1.64,1.91-2.47a.3.3,0,0,1,.35-.13,7.21,7.21,0,0,1,2.21.79,3.33,3.33,0,0,1,.63.49,1.17,1.17,0,0,1,.12,1.65l-.12.12a4.13,4.13,0,0,1-1.82,1A12.79,12.79,0,0,1,297,210.37Z" transform="translate(24.32)"/><path class="cls-19" d="M75.14,390.3H124L134.26,380s.16-78.37-1.12-84.06-4.35-59.5-4.35-59.5-3.72-16.34-4.48-16.46-7.62-8.94-7.62-8.94l-7.35-1.43s-29.12-.91-30.46-1.13-8,2-8,2L63,234.6s-4.81,33.48-4.81,38.18-2.88,24.11-2.89,24.79S63,379.11,63,379.11v13.4Z" transform="translate(24.32)"/><path class="cls-20" d="M75.14,176.79v32.88S83.63,219.73,91.89,220,116,213,116.69,211s0-7.14,0-7.14L105.07,175.5l-21.66-5.13H77.15Z" transform="translate(24.32)"/><polygon class="cls-21" points="176.89 315.43 197.11 330.31 212.2 309.11 174.9 288.85 176.89 315.43"/><path class="cls-22" d="M124,278.21V405.36s5.36,10.72,11.61,14.74,17,4,17,4V233.38s-1.94-7-5.21-8.94-16.08-10-18.61-9.82-6.26,0-6.26,0,10.72,25.17,10.72,26.06-2.08,20-3.27,22.49S124,278.21,124,278.21Z" transform="translate(24.32)"/><path class="cls-20" d="M158.08,306.72s12.52,24.15,17.64,26,12.6,1.82,13.13,1.38,1.39-1.32,1.39-2.09,3.42-16.24,3.42-17.66-2.88-9.12-3.95-11.53-6.3-10.34-6.3-10.34l-13.67-20.37Z" transform="translate(24.32)"/><path class="cls-23" d="M116.08,211.73s5.79,10.81,6.68,14.38S125,265.2,125,268.55s-4,29.7-4,29.7,20.54-44.44,19.87-45.79-7.59-4.69-7.59-4.69,12.62-2.19,11.78-3.55S138.86,227,135.51,225s-17-13.29-17-13.29l-1.7-1.22Z" transform="translate(24.32)"/><path class="cls-22" d="M75.14,254.3V406.67s-.44,10.72-8.93,15.19-31.69,2.68-31.69,2.68l4-196.1a17.56,17.56,0,0,1,4.32-4.77c2.68-1.93,18.17-7.15,20.55-7.74s11.76-2.09,11.76-2.09Z" transform="translate(24.32)"/><path class="cls-24" d="M34.52,421.86s29.81,1.34,33.39-3.69,5.13-12.51,4.91-15.41-.3-142-.3-142h2.62V403.3S76,409.65,73.29,414s-3.39,7.07-8.32,8.43a95.92,95.92,0,0,1-17.36,2.46c-2.9,0-13.12-.35-13.12-.35Z" transform="translate(24.32)"/><path class="cls-23" d="M75.14,252.24V206s-9.23.56-14.59,7.11S50.28,228,50.72,230.5s11,7,12.81,9.23l3.57,4.47s-8.19,2.23-8,4.76,10,9.09,11.76,12.36,4.32,19.51,4.32,19.51Z" transform="translate(24.32)"/><path class="cls-25" d="M75.26,178.47l-.12,22.61s6.31,7.85,9.33,9.4a17.57,17.57,0,0,0,9.15,2.32c3.91,0,8.6.78,12.18,0S117.46,209,117.46,209s-15.19-10.39-15.66-11.17S87.37,187.9,86.52,186s-6.37-8.26-6.37-8.26Z" transform="translate(24.32)"/><path class="cls-20" d="M104.68,123.92c-15.19,0-27.84,14.33-30.59,33.28-2.27-1.37-4.6-1.73-6.37-.7-3.35,1.93-3.46,8-.25,13.55,2,3.43,4.76,5.86,7.39,6.76C78.72,193.68,90.61,206,104.68,206c17.21,0,31.16-18.37,31.16-41S121.89,123.92,104.68,123.92Z" transform="translate(24.32)"/><ellipse cx="151.45" cy="158.45" rx="2.82" ry="5.51"/><ellipse cx="128.6" cy="158.45" rx="2.82" ry="5.51"/><path class="cls-26" d="M117.46,164.94s4.91,3.19,4.91,4.83-.29,2.68-1.63,3a25.84,25.84,0,0,1-3.28.44" transform="translate(24.32)"/><path class="cls-27" d="M135.21,173.19c-.89-1.78-20.53,2.16-24.57,2.42-8.45.56-7.92,9.73-7.92,9.73s-11.51-4.25-14.19-7.6S81,157.35,81,157.35a6.08,6.08,0,0,0,2.46-2.23c.67-1.34,0-8.27,0-8.27s8.34-7.16,11.31-9.54,11.55-7.15,11.29-8,16,3.13,18,4.48c3,2,6.44,8.17,6.44,8.17s3.43-6.4-12-21c-5-4.78-27.62-3-27.62-3s-11.91,6.85-12.8,8.34-7.75,10.13-9.23,12.51A64.68,64.68,0,0,1,62.65,146s-3.81,12.28-2.92,15,5.7,4,5.7,4-.57-4.76,1-7.32c2.21-3.62,7.65-.42,7.65-.42l.85,20s3.21,17.16,11.8,24.79c5,4.47,25.76,9.11,32.46,8.44S132.45,203.6,134,200C136.94,193.35,136.1,175,135.21,173.19ZM118.12,189.5a9.16,9.16,0,0,1-8.78-5.22s5.58.19,7.69-.58,2.89-4.81,2.89-4.81.77,3.28,2.69,4.43,7.89,0,7.89,0S124.52,189.11,118.12,189.5Z" transform="translate(24.32)"/><path class="cls-27" d="M106.45,145.75c-1.23-.13-3.58-1.46-4.79-1.24s-2.9,2.31-4,2.87c-.68.34-1.46-.37-1.59-1.11h0c-.13-.74.63-1.73,1.23-2.2,1.22-.93,2-1.92,3.87-2.26a7.88,7.88,0,0,1,4.06.68c1.07.56,2.2,1.32,2.27,1.74h0C107.64,145,107.21,145.83,106.45,145.75Z" transform="translate(24.32)"/><path class="cls-27" d="M129.35,144.18c-1.23-.13-3.58-1.45-4.79-1.24s-2.9,2.32-4,2.87c-.68.34-1.46-.36-1.59-1.1h0a2.88,2.88,0,0,1,1.23-2.2c1.22-.93,2-1.92,3.87-2.26a7.88,7.88,0,0,1,4.06.68c1.07.56,2.2,1.32,2.27,1.74h0C130.52,143.41,130.11,144.3,129.35,144.18Z" transform="translate(24.32)"/><path class="cls-28" d="M133.34,124.3s-10-10.41-12.2-12.49-6.85-5.13-13.77-7.06-16.49-1.89-23.56.72S68,115.47,64,121s-8.13,11.74-8.07,15.84,2.16,21.91,2.16,21.91l36.59-24.57,24-6.67Z" transform="translate(24.32)"/><path class="cls-29" d="M68.24,116.16c3.74-5.94,8.69-9.8,14.62-13.55,1.3-.81,6.67-2.89,7.89-2.93,2-.07,2.51,3.64,2.8,5.9-4.82.47-9.08.75-13.67,2.62A32.94,32.94,0,0,0,68.24,116.16Z" transform="translate(24.32)"/><path class="cls-30" d="M71.09,113.44s-4.32,4.79-5.28,9.19-1.07,18.49-1.07,18.49,19.61-14.42,36.08-17.75a208.18,208.18,0,0,1,27.89-3.91l4.63,4.79-41,9.42L58,158.67s-3.09-21.28-1.58-25.13c1.83-4.71,8.8-14.27,8.8-14.27Z" transform="translate(24.32)"/><path class="cls-31" d="M58.83,164.73a10.88,10.88,0,0,1-2.23-3.33,7.37,7.37,0,0,1,.49-4.3c4.37-8.71,7.48-8.68,15.52-13.56,2.55-1.55,10.51-5.65,13.09-7.13,12.1-7,27.42-12.68,41.28-14.29a16,16,0,0,1,6.82,1.07c4.36,1.75,5.44,8.12,4.28,12.68s-3.17,6.82-5.53,10.89c-2.42-5.51-2.22-9.64-5.37-14.87a11.72,11.72,0,0,0-3.57-2.59,18,18,0,0,0-4.7-.32c-9.42.53-14.4,4.35-22.69,8.86-9,4.91-18,10-26.62,15.58-1.31.85-5.27,3.57-5.49,5.12a8.24,8.24,0,0,0,1.33,6.27,23.2,23.2,0,0,0,.87,2.87c.83,1.6,2.07,3.81,2.07,3.81S59.52,165.58,58.83,164.73Z" transform="translate(24.32)"/><path class="cls-32" d="M120.87,129a77.5,77.5,0,0,1,8.62-.15c1.87.29,5.07,4,4.77,6.81s-2.77,8.36-2.77,8.36-3.68-8.27-5.66-10.28S120.87,129,120.87,129Z" transform="translate(24.32)"/><circle class="cls-33" cx="116.07" cy="116.02" r="2.05"/><circle class="cls-34" cx="126.48" cy="111.77" r="2.05"/><path class="cls-34" d="M98.24,123.56l3.38-8.35a16.67,16.67,0,0,1,1.74-1,19.57,19.57,0,0,1,2-.38l4,10.48L106,125.66l-2.44-6-2.07,5.39Z" transform="translate(24.32)"/><path class="cls-33" d="M91,119.55a12.55,12.55,0,0,1,1.43-.79c.43-.16,2.15-.67,2.15-.67l5,2.12-1.35,3.35-2-.79,2.43,6-3.36,1.37Z" transform="translate(24.32)"/><path class="cls-27" d="M131.24,143.48s1.21-3.23,1.36-4,2.44-5.29-.68-7.75-4.83-2.83-5.39-2.83-2-.2-2-.2-3.84,0-6.48.31-6.1,1.09-6.1,1.09a63.64,63.64,0,0,1,9.49,2.86C125.08,134.59,131.24,143.48,131.24,143.48Z" transform="translate(24.32)"/><path class="cls-24" d="M124,309.11s-.49,95.32,0,96.25a63.69,63.69,0,0,0,5.89,9.21c2.31,2.65,3.72,5.16,7.66,6.59a36.38,36.38,0,0,0,8.44,2.39c2.83.39,6.6.57,6.6.57v-2.75s-12-1.71-15.54-4.46-9.76-10.87-9.83-11.77,0-12.65,0-12.65V308.82H124Z" transform="translate(24.32)"/><polygon class="cls-35" points="59.83 374.84 96.96 353.18 96.96 335.98 60.22 355.66 59.83 374.84"/><polygon class="cls-35" points="59.83 338.8 96.96 317.13 96.96 299.94 60.22 319.62 59.83 338.8"/><polygon class="cls-35" points="176.89 367.23 151.52 351.98 151.52 334.78 176.89 348.29 176.89 367.23"/><polygon class="cls-35" points="176.89 330.74 151.52 315.94 151.52 298.74 176.89 312.33 176.89 330.74"/><polygon class="cls-36" points="206.22 188.61 187.68 188.61 178.42 204.66 187.68 220.71 206.22 220.71 215.48 204.66 206.22 188.61"/><polygon class="cls-36" points="238.39 117.43 224.42 117.43 217.43 129.54 224.42 141.64 238.39 141.64 245.38 129.54 238.39 117.43"/><polygon class="cls-37" points="247.07 192.07 234.21 192.07 227.78 203.21 234.21 214.34 247.07 214.34 253.5 203.21 247.07 192.07"/><polygon class="cls-37" points="330.49 128.63 312.34 128.63 303.26 144.36 312.34 160.08 330.49 160.08 339.57 144.36 330.49 128.63"/><polygon class="cls-37" points="289.64 134.88 256.97 134.88 240.64 163.18 256.97 191.47 289.64 191.47 305.98 163.18 289.64 134.88"/><path class="cls-18" d="M264.06,163a15,15,0,1,0-14.94,15.06,14.59,14.59,0,0,0,4.4-.68l5.75,4.57V174h0A15,15,0,0,0,264.06,163Z" transform="translate(24.32)"/><path class="cls-37" d="M175.64,195.89a6.08,6.08,0,0,0-4.85,9.75l-7,6.56a.71.71,0,0,0,0,1h0a.7.7,0,0,0,1,0l7-6.56a6.09,6.09,0,1,0,3.88-10.78Zm0,10.86a4.78,4.78,0,1,1,4.78-4.78h0a4.77,4.77,0,0,1-4.78,4.77Z" transform="translate(24.32)"/><circle class="cls-37" cx="266.69" cy="162.55" r="1.62"/><circle class="cls-37" cx="273.31" cy="162.55" r="1.62"/><circle class="cls-37" cx="279.34" cy="162.55" r="1.62"/><path class="cls-18" d="M214.86,196l.5.17a.27.27,0,0,1,.21.3v2.82c0,.2,0,.26-.25.31L214,200c-.23.06-.28.13-.27.36a9.5,9.5,0,0,0,.87,3.52,9.75,9.75,0,0,0,2.38,3.29c.2.17.27.18.48,0l1-.83a.25.25,0,0,1,.36,0h0l2.26,1.75a.24.24,0,0,1,.11.28,9.87,9.87,0,0,1-.51,1.31,1.87,1.87,0,0,1-2.3.85A10.57,10.57,0,0,1,212,197a1.93,1.93,0,0,1,2.45-1.21h0Z" transform="translate(24.32)"/><path class="cls-37" d="M215.14,128.63v1.76a10.23,10.23,0,0,1-1.49.63,1.4,1.4,0,0,0-1,1,.69.69,0,0,0,0,.49c.26.57.5,1.15.76,1.72a.24.24,0,0,1-.07.31c-.34.32-.68.65-1,1a.29.29,0,0,1-.36.09,11.82,11.82,0,0,1-1.24-.49,1.48,1.48,0,0,0-1.59,0,.87.87,0,0,0-.27.27c-.28.65-.55,1.31-.82,2h-1.81a10.84,10.84,0,0,1-.64-1.38,1.44,1.44,0,0,0-1.13-1.09.68.68,0,0,0-.4,0c-.59.23-1.17.48-1.75.73a.33.33,0,0,1-.42-.08c-.31-.33-.64-.64-1-1a.26.26,0,0,1-.08-.34c.2-.49.37-1,.61-1.49a1.1,1.1,0,0,0,0-1,1,1,0,0,0-.66-.63c-.6-.21-1.17-.48-1.76-.72v-1.76a15.41,15.41,0,0,1,1.45-.62,1.44,1.44,0,0,0,1.1-1.09.5.5,0,0,0,0-.38c-.26-.58-.51-1.18-.77-1.76a.28.28,0,0,1,.07-.34l1-1a.26.26,0,0,1,.31-.08,10.92,10.92,0,0,1,1.28.49,1.42,1.42,0,0,0,1.58,0,.68.68,0,0,0,.27-.26c.28-.66.55-1.32.82-2h1.81a12.65,12.65,0,0,1,.65,1.4,1.4,1.4,0,0,0,1.09,1.08.58.58,0,0,0,.45,0l1.73-.73a.34.34,0,0,1,.42.09c.32.32.64.64,1,1a.27.27,0,0,1,.09.33c-.21.5-.38,1-.61,1.49a1.1,1.1,0,0,0,0,1,1,1,0,0,0,.68.63A17.8,17.8,0,0,0,215.14,128.63Zm-10.63.88a2.58,2.58,0,1,0,2.67-2.49h-.05a2.57,2.57,0,0,0-2.61,2.49Z" transform="translate(24.32)"/><path class="cls-18" d="M305.08,140.49a7.85,7.85,0,0,1-.86,3.4,25.87,25.87,0,0,1-3.05,4.94c-1.28,1.7-2.6,3.37-3.9,5.06-.12.15-.22.18-.35,0-1.65-2.17-3.32-4.33-4.94-6.53a20.69,20.69,0,0,1-2.26-4A7.76,7.76,0,0,1,294,133.27a8.22,8.22,0,0,1,1.61-.46,8,8,0,0,1,9,5A7.46,7.46,0,0,1,305.08,140.49Zm-10.75.48a2.76,2.76,0,1,0,2.8-2.72h0A2.77,2.77,0,0,0,294.33,141Z" transform="translate(24.32)"/><path class="cls-38" d="M256.16,224.3H194.29a3.13,3.13,0,0,0-3.13,3.13h0v15.19l-7.08,11.74,7.08-1.91v.85a3.13,3.13,0,0,0,3.13,3.13h61.87a3.13,3.13,0,0,0,3.13-3.13h0V227.43a3.13,3.13,0,0,0-3.13-3.13Z" transform="translate(24.32)"/><rect class="cls-39" x="231.26" y="229.81" width="47.05" height="1.94" rx="0.97"/><rect class="cls-39" x="231.26" y="236.22" width="47.05" height="1.94" rx="0.97"/><rect class="cls-39" x="231.26" y="243.96" width="47.05" height="1.94" rx="0.97"/><polygon class="cls-17" points="389.91 391.33 383.52 512.09 426.48 512.09 430.65 444.13 436.93 512.09 485.81 515.55 480.88 385.71 391.1 382.1 389.91 391.33"/><path class="cls-40" d="M446.32,399.68h-48.8l-25.84-11s10.53-78.48,11.81-84.18,9.23-58.63,9.23-58.63,3.72-16.34,4.47-16.46,7.63-8.94,7.63-8.94l10.29-3.08s26.17.74,27.51.51,8,2,8,2L458.55,244s4.81,33.48,4.81,38.18,2.88,24.1,2.89,24.79-7.7,81.53-7.7,81.53v13.4Z" transform="translate(24.32)"/><path class="cls-22" d="M428.85,299.71c-2,14.33-2.8,28.8-3.62,43.25-1.43,25.2-2.77,51.15,5.35,75.06a51.28,51.28,0,0,0,7.42,14.8c9.1,11.86,25.79,16.59,40.33,13.12l1.14-5.34V256.41c2.71,0,5.42,0,8.13-.07-1.24-3.44,1.37-7.07,1.38-10.72a11.49,11.49,0,0,0-2.13-6.11c-5.55-8.56-15.93-12.39-25.59-15.67-3.63-1.23-7.25-2.51-10.9-3.68,3.21,2.58-10.45,31.58-12.13,37.06C434.24,270.3,428.85,286,428.85,299.71Z" transform="translate(24.32)"/><path class="cls-41" d="M461.26,223.84s-16,46.49-17.83,57.27-2.88,48.41-2.88,48.41l17.83,1.92s2.21-50.44,2.88-55,13.2-47.35,13.2-47.35Z" transform="translate(24.32)"/><polygon class="cls-41" points="449.46 344.5 503.7 362.52 503.79 342.6 450.5 327.16 449.46 344.5"/><polygon class="cls-41" points="448.47 363.95 448.47 377.51 503.14 391.33 503.79 373.67 448.47 363.95"/><path class="cls-40" d="M353.33,249.74a6.18,6.18,0,0,0,1.77-.86A6.7,6.7,0,0,0,356,247c.85-1.58,3-1.84,4.64-2.44,3.56-1.25,5.93-4.5,8.56-7.21,7-7.17,16.54-11,25.83-14.71a259.24,259.24,0,0,0,7.27,44,2.48,2.48,0,0,1-.69,3c-6.13,6.59-12.4,13.29-20.28,17.63-.5-4.19-3.26-7.78-6.32-10.68s-6.56-5.39-9.25-8.65c-1.36-1.66-2.5-3.5-4-5.07-3-3.21-7.12-5.17-10-8.49C350.78,253.1,352.07,250.3,353.33,249.74Z" transform="translate(24.32)"/><path class="cls-22" d="M415.08,217.3s-5.8,7.23-13.74,22.21c-7.62,14.38-18.07,47.42-20.31,82.29-4.58,71.2-5.51,102-5.51,102s-.83,13.39-8.74,20.23a129.94,129.94,0,0,1-14.57,11L370.52,264,378,229s11.25-10.83,21.66-11.66S415.08,217.3,415.08,217.3Z" transform="translate(24.32)"/><path class="cls-20" d="M358.59,303.76a31.28,31.28,0,0,1,9.9-8.73c2.12-1.18,4.48-2.21,5.84-4.22,2.45-3.6.56-8.53-1.93-12.1a41.18,41.18,0,0,0-17.13-14,6.24,6.24,0,0,0-3.55-.71,6.37,6.37,0,0,0-3,1.81,63.05,63.05,0,0,0-6.92,7.51,145.35,145.35,0,0,1-17.24-26.16,46,46,0,0,1-4-10c-1.13-4.64-1-9.48-.92-14.25l.18-8.35a7.33,7.33,0,0,0-.51-3.58c-.87-1.72-2.88-2.47-4.43-3.63-4.06-3-4.83-8.64-5.92-13.57a58.52,58.52,0,0,0-4.09-12.06,6.38,6.38,0,0,0-2.38-3.09c-1.16-.64-2.93-.3-3.33,1a3.62,3.62,0,0,0,0,1.67l3.2,16.58c-3.06-1.25-7,1.49-6.82,4.78a7,7,0,0,0-4.34,5.8c-1.71-.38-3.13,1.37-3.81,3a18,18,0,0,0,.78,15.34c1.79,3.27,4.57,5.88,6.86,8.83,8.45,10.83,10,25.34,14.79,38.21a76.42,76.42,0,0,0,21,30.51c1.09,1,1.42,2.63,2.43,3.68,1.5,1.58,3.87,2,6,1.94,4-.15,7.74-1.69,11.41-3.21C353.74,305.46,355.64,305,358.59,303.76Z" transform="translate(24.32)"/><path class="cls-42" d="M303.42,204.44a2.8,2.8,0,0,1,1.6-.34,2.15,2.15,0,0,1,.87.55l6.3,5.55c1.16,1,2.44,2.36,2.14,3.88a1.73,1.73,0,0,0-1.9,1,4.83,4.83,0,0,1-.43,1.19c-.39.55-1.28.65-1.55,1.28a1.63,1.63,0,0,0,.07,1.09c1.17,3.67,3.69,6.85,4.42,10.62-1.36,0-1.56,2.2-2.8,2.77-.75.34-1.69,0-2.44.34-.49.23-.82.73-1.33.9a2.21,2.21,0,0,1-1.22-.05,4.68,4.68,0,0,1-2.38-1c-.9-.9-1-2.49-2.13-3.11a3.12,3.12,0,0,0-1.38-.3,12.79,12.79,0,0,0-3.54.35,2.75,2.75,0,0,1-1.24.14c-1-.2-1.43-1.43-2-2.29-1.22-1.77-3.88-2.49-4.37-4.58a.86.86,0,0,1,0-.59c.28-.59,1.27-.26,1.77-.69s.24-1.09-.17-1.47a8.55,8.55,0,0,0-1.44-.83,1.38,1.38,0,0,1-.76-1.36c.6-.32,1.32.06,1.87.45a21.62,21.62,0,0,1,4.38,4.16,9.92,9.92,0,0,0,1.68,1.86,2.59,2.59,0,0,0,2.36.51,1.22,1.22,0,0,0,.85-1,2.09,2.09,0,0,0-.67-1.28c-1.66-2.05-1.83-4.94-3.17-7.22-1-1.71-2.61-3-3.43-4.81.37-.33.91.12,1.2.53l3.06,4.34a18.89,18.89,0,0,1,2.07,3.45,27.74,27.74,0,0,0,1.66,4.25c.81,1.28,2.51,2.22,3.86,1.52a2.75,2.75,0,0,0,1.36-2.2,6.32,6.32,0,0,0-.4-2.65,19.52,19.52,0,0,0-1.72-3.85c-1-1.77-2.39-3.5-2.5-5.55.73.31,1,1.2,1.19,2a24.22,24.22,0,0,0,1.79,4.57,3.27,3.27,0,0,0,1.87,1.88,10.83,10.83,0,0,0,1.19-1.51,4.56,4.56,0,0,0,.92-2.76c-.09-1.36-1.13-2.45-2.1-3.4a5.67,5.67,0,0,0-1.47-1.15,8.71,8.71,0,0,0-2.27-.45,8.58,8.58,0,0,1-6.38-4.7c-.23-.47-.72-2,.22-1.92.39,0,1.46,1.32,1.88,1.56A5.51,5.51,0,0,0,303.42,204.44Z" transform="translate(24.32)"/><path class="cls-42" d="M302.44,196.21a6.6,6.6,0,0,0,.4,1.33,4.17,4.17,0,0,0,.7,1,7.06,7.06,0,0,0,1.77,1.4,14.52,14.52,0,0,1-1-3.16,4.63,4.63,0,0,1,.6-3.19.89.89,0,0,0,.18-.38c.07-.56-.85-.57-1.28-.93a1.46,1.46,0,0,1-.4-.73l-1.1-3.36a1,1,0,0,1-.08-.63c.07-.31.4-.5.53-.79.29-.61-.33-1.24-.55-1.88-.39-1.16.75-4-1.34-4.33-1.42-.21-1.38,2-1.25,2.87C300.24,187.69,301.52,192,302.44,196.21Z" transform="translate(24.32)"/><path class="cls-43" d="M348.74,260.41l21.78,29.76a3.51,3.51,0,0,1,.94,2.33c-.09.86-1.22,1.56-1.84,1a2.92,2.92,0,0,0,3.16,2.66,2.43,2.43,0,0,0,.47-.08,5.41,5.41,0,0,0,1.28-.68l3.25-2.09c2-1.27,4-2.63,5.13-4.72,1.57-3,.61-6.83-1.25-9.7s-4.5-5.13-6.68-7.75c-2.65-3.19-4.6-6.92-7.37-10a49.85,49.85,0,0,0-8.95-7.3,5.7,5.7,0,0,0-3.45-1.38c-1.26.09-2.45,1.51-1.82,2.6a9,9,0,0,1-5.26-2.31c.42,2.53-3,4-3.73,6.47-.68,2.27,1.15,4.83,3,5.77.69-1.81-.15-3.55-.18-5.34A1.88,1.88,0,0,1,348.74,260.41Z" transform="translate(24.32)"/><path class="cls-44" d="M461.52,184.23s-.73,8.45-1.5,10.18-4.67,5.9-4.67,5.9h-1.06l3.38-14.25-.63-1.12,2.16-1Z" transform="translate(24.32)"/><path class="cls-20" d="M458.38,185.3l-7.76,34.62s-10.23,5.28-18.33,3.63-16.86-3.68-17-5.79,1.56-20,1.56-20l12.67-20.46,22.27-.11,6.09,1.42Z" transform="translate(24.32)"/><path class="cls-25" d="M457.88,186.89l-5,22.05s-7.92,6.22-11.21,7a17.5,17.5,0,0,1-9.44.2c-3.81-.89-8.56-1.19-11.86-2.76s-4.59-5.78-4.59-5.78.8-10.29,1.44-10.95,26.73-3.35,28-5,8.07-6.61,8.07-6.61Z" transform="translate(24.32)"/><path class="cls-20" d="M441.52,127.1c14.81,3.44,23.88,20.26,22.28,39.34,2.52-.82,4.86-.64,6.36.76,2.82,2.64,1.56,8.57-2.82,13.26-2.71,2.89-6,4.63-8.73,4.91-7.58,15.56-26.46,20.4-40.17,17.21-16.76-3.89-21.68-20.5-16.55-42.57S424.8,123.21,441.52,127.1Z" transform="translate(24.32)"/><ellipse cx="412.28" cy="157.34" rx="5.51" ry="2.82" transform="translate(190.04 523.32) rotate(-76.92)"/><path class="cls-26" d="M419.84,164.17s-5.51,2-5.88,3.59-.32,2.67.92,3.27A28.82,28.82,0,0,0,418,172.2" transform="translate(24.32)"/><path class="cls-45" d="M431.22,154.67c1.23.15,3.82-.61,5-.12s2.3,2.91,3.24,3.7c.58.48,1.5,0,1.8-.72h0a2.87,2.87,0,0,0-.71-2.42c-1-1.18-1.49-2.32-3.26-3.08a7.83,7.83,0,0,0-4.1-.26c-1.17.31-2.44.79-2.61,1.18h0C430.23,153.65,430.52,154.58,431.22,154.67Z" transform="translate(24.32)"/><path class="cls-45" d="M411.15,145.9c1.23.15,3.82-.61,5-.12s2.3,2.91,3.24,3.69c.58.49,1.5,0,1.8-.71h0a2.87,2.87,0,0,0-.71-2.42c-1-1.19-1.49-2.32-3.26-3.08a7.83,7.83,0,0,0-4.1-.26c-1.17.31-2.44.79-2.61,1.18h0C410.16,144.88,410.4,145.81,411.15,145.9Z" transform="translate(24.32)"/><path class="cls-28" d="M413.57,120.94s12.14-7.87,14.71-9.41,7.84-3.45,15-3.76,16.49,1.89,22.78,6,13.18,13.31,15.83,19.57,5.26,13.28,4.28,17.26-7.06,20.86-7.06,20.86L449.05,139.3l-21.9-12Z" transform="translate(24.32)"/><path class="cls-29" d="M478.82,127.79c-2.3-6.63-6.25-11.51-11.18-16.51a34.51,34.51,0,0,0-7-4.64c-1.91-.51-3.27,3-4.06,5.11,4.58,1.56,8.67,2.79,12.72,5.65A32.74,32.74,0,0,1,478.82,127.79Z" transform="translate(24.32)"/><path class="cls-30" d="M476.66,124.49s3.12,5.65,3.07,10.15-3.15,18.26-3.15,18.26-15.84-18.49-31.13-25.46a209.07,209.07,0,0,0-26.28-10.14l-5.6,3.62,37.78,18.44,27.78,32.11s7.82-20,7.23-24.13c-.73-5-5.34-15.89-5.34-15.89Z" transform="translate(24.32)"/><path class="cls-31" d="M477,177.23a11.07,11.07,0,0,0,2.92-2.75,7.33,7.33,0,0,0,.5-4.29c-2.29-9.47-5.33-10.15-12.05-16.72-2.14-2.09-9-7.88-11.14-9.91-10.21-9.51-23.84-18.55-37-23.26a16.17,16.17,0,0,0-6.88-.5c-4.65.72-7.13,6.68-7,11.39s1.54,7.35,2.93,11.85c3.6-4.82,4.33-8.88,8.58-13.27a12.29,12.29,0,0,1,4.07-1.71,17.85,17.85,0,0,1,4.65.74c9,2.66,13,7.5,20.09,13.77,7.69,6.83,14.25,14.28,21.39,21.69,1.08,1.13,3.74,4.42,3.61,6a17.09,17.09,0,0,1-1.11,5.57,21.64,21.64,0,0,1-1.5,2.6c-1.17,1.37-2.88,3.24-2.88,3.24S476.14,177.9,477,177.23Z" transform="translate(24.32)"/><path class="cls-32" d="M424.65,128.35a76.8,76.8,0,0,0-8.36-2.09c-1.88-.15-5.85,2.77-6.18,5.56s.8,8.77.8,8.77,5.46-7.23,7.84-8.74S424.65,128.35,424.65,128.35Z" transform="translate(24.32)"/><circle class="cls-34" cx="480.27" cy="122.33" r="2.05"/><circle class="cls-33" cx="471.09" cy="115.84" r="2.05"/><path class="cls-33" d="M447.93,128.21l-1.41-8.91a17.06,17.06,0,0,0-1.47-1.34,16.26,16.26,0,0,0-1.91-.84l-6.29,9.29,2.93,2.07,3.74-5.29.9,5.72Z" transform="translate(24.32)"/><path class="cls-34" d="M455.91,126s-.87-.85-1.21-1.1-2-1.14-2-1.14l-5.39.93.57,3.57,2.16-.31-3.72,5.25,3,2.1Z" transform="translate(24.32)"/><path class="cls-45" d="M451.64,167.6c-.44,1.35-1,2.91-.19,4.11,1.15,1.78,4,1,5.54-.44s5.59-4.4,7.61-5.05c1.74-.56,5.89,1,5.89,1l.94-1.16s-6.43-7.6-8.73-9.63l-23.07-20.32a26,26,0,0,0-6.12-4.39c-5.4-2.44-11.76-.85-17.14,1.61-1.46.67-3.15,2.09-2.44,3.53,5.14-.7,10.38-1.4,15.49-.49,7.68,1.37,14.37,6.21,20.07,11.29C454.67,152.24,453.65,161.47,451.64,167.6Z" transform="translate(24.32)"/><path class="cls-45" d="M413.93,136.83a13.46,13.46,0,0,1-10.18,1.36c-3.18-1-4.75-7.24-4.75-7.24s6,2.63,8.45,2.27,7.58-.86,7.58-.86-7-.85-9.21-3.44-.24-7.41-.24-7.41,3.93,4.77,5.61,5.47c3.8,1.58,5.52,1.25,5.52,1.25l5.33-.63s2.39.51,4.52,1.2,6.62,2.74,6.62,2.74l2.94,1.87s-1.73,1.8-1.86,1.84-11-1.12-11.24-1.12-6.22,1.12-6.22,1.12Z" transform="translate(24.32)"/><path class="cls-46" d="M419.7,181.47h9.76a.83.83,0,0,1,.64,1.37c-2.11,2.49-6.87,7.44-10.84,6.88-3.75-.52-7.7-5.12-9.69-7.77a1,1,0,0,1,.3-1.38,1,1,0,0,1,.62-.16l6.22.86A21.35,21.35,0,0,0,419.7,181.47Z" transform="translate(24.32)"/><polygon class="cls-41" points="401.35 375.52 383.52 382.1 384.88 367.95 402.84 362.82 401.35 375.52"/><polyline class="cls-41" points="403.91 344.84 386.69 349.09 388.48 330.42 405.22 328.08 404.05 342.6"/><path class="cls-20" d="M415.11,217.36s3.53,16.74,4.73,18.47a21.49,21.49,0,0,0,3.21,3.46A145.8,145.8,0,0,0,436.83,232c7-4.18,13.79-12.14,13.79-12.14l-30.78-3.17Z" transform="translate(24.32)"/><path class="cls-47" d="M415.08,217.3s-8.35-2-12,4.36c-1.65,2.88-.57,24.34-.57,24.34s5.81-8.5,8.3-9.85c2.92-1.59,12.24,3.13,12.24,3.13Z" transform="translate(24.32)"/><path class="cls-47" d="M423.05,239.44s12.59-5.87,16.63-9.16,10.94-10.22,10.94-10.22,8.71,8,2.19,18.46a172.18,172.18,0,0,1-10.32,14s-.7-9.85-3.22-12C435.8,237.5,423.05,239.44,423.05,239.44Z" transform="translate(24.32)"/><path class="cls-48" d="M428.73,160.47a7.27,7.27,0,0,1,6.34,0c2.69,1.23,4.07,4.52,4.07,4.52" transform="translate(24.32)"/><path class="cls-1" d="M169.75,3.48,457,77.79c49.66,12.84,78.74,64.06,64.17,113L476.61,341a90.68,90.68,0,0,1-87.18,64.7L90.74,405.2c-55.6-.09-96.46-51.92-83.31-105.67L64.52,66.3C75.78,19.74,123.2-8.56,169.75,3.48Z" transform="translate(24.32)"/></g><path class="cls-21" d="M12.52,345.1s-3-.72-2.7-2.8S25,234.2,25.9,231.82s6.55-8.64,11.61-9.24,12.21,0,14,3,9,4.17,7.44,20.7S48.3,314.94,48.3,314.94L32.52,322.2s-8.65,9.6-9.1,11.17A48.19,48.19,0,0,1,19.85,341C19.21,341.85,12.52,345.1,12.52,345.1Z" transform="translate(24.32)"/><rect class="cls-49" x="108.98" y="243.62" width="87.63" height="57.09" rx="2.39" transform="translate(-112.63 388.23) rotate(-82.52)"/><rect class="cls-50" x="110.82" y="244.54" width="86.89" height="56.27" rx="2.36" transform="translate(-111.79 390.28) rotate(-82.55)"/><path class="cls-51" d="M130.94,230.3l1.41.19.22-1.7a1.48,1.48,0,0,1,1.63-1.25l51.32,6.69a1.08,1.08,0,0,1,.93,1.21l-.19,1.41a.65.65,0,0,0,.56.74l1,.13.09-.7-.89-.11.21-1.57a1.59,1.59,0,0,0-1.37-1.78h0l-52.23-6.84A1.46,1.46,0,0,0,132,228h0l-.22,1.67-.69-.09Z" transform="translate(24.32)"/><rect class="cls-52" x="131.61" y="232.48" width="8.25" height="3.63" rx="1.81" transform="translate(-89.86 338.51) rotate(-82.55)"/><path class="cls-53" d="M136.23,230.3a1.83,1.83,0,0,0-2,1.56l-.6,4.59a1.82,1.82,0,0,0,3.6.47l.6-4.59a1.8,1.8,0,0,0-1.56-2Zm.87,6.47a1.71,1.71,0,1,1-3.4-.33s0-.07,0-.11l.57-4.32a1.71,1.71,0,0,1,3.39.45Z" transform="translate(24.32)"/><circle class="cls-54" cx="160.23" cy="232.69" r="0.92"/><circle class="cls-55" cx="160.23" cy="232.69" r="0.77"/><circle class="cls-53" cx="160.23" cy="232.67" r="0.68"/><circle class="cls-55" cx="160.23" cy="232.67" r="0.58"/><circle class="cls-53" cx="160.23" cy="232.67" r="0.54"/><circle class="cls-52" cx="160.23" cy="232.67" r="0.34"/><circle class="cls-56" cx="159.86" cy="235.47" r="0.92"/><circle class="cls-55" cx="159.86" cy="235.47" r="0.77"/><circle class="cls-53" cx="159.86" cy="235.45" r="0.68"/><circle class="cls-55" cx="159.86" cy="235.45" r="0.58"/><circle class="cls-53" cx="159.86" cy="235.45" r="0.54"/><circle class="cls-52" cx="159.86" cy="235.45" r="0.34"/><path class="cls-20" d="M134,282.21c-2.66-2.46-6.73-2.35-10.34-2.09a11.13,11.13,0,0,0,2.87-3.82,8.11,8.11,0,0,0,5.68,1.11,4.25,4.25,0,0,0,5.42,1.57,1,1,0,0,0,.62-.67,1.2,1.2,0,0,0-.31-.8c-1.83-2.56-3.84-5.27-6.81-6.3a15.06,15.06,0,0,0-4-.64,6.51,6.51,0,0,0-6.57,2.54q-3.36,3.39-6.71,6.8a12.72,12.72,0,0,0-3.29,4.86c-3,6.66-6.1,13.72-12,18.09L93.64,305a129,129,0,0,0-12.35,6c-5.81,3.27-20,6.55-24.27,7.89a29.68,29.68,0,0,0-7.9,4A5.87,5.87,0,0,0,45.87,321c-2.46-.67-6,.34-9.27,1.68s-6,5.81-8.71,9.49-3.69,13.18-3.8,14.3,4.77,5.17,4.77,5.17,2.49,3.31,2.94,3.76,4-.11,5-.88,7.6,2.67,31.07-6.68c2.49-1,14.29-11.46,17.86-14.59s19.32-17,19.32-17c1.26.21,2.39-.7,3.58-1.16,2.16-.83,4.7-.15,6.85-1a10.08,10.08,0,0,0,3.9-3.63c.84-1.1,1.67-2.21,2.5-3.32a5.79,5.79,0,0,0,5.13-.23,9.53,9.53,0,0,0,4-3.52,12.81,12.81,0,0,0,1.66-6.49,3.81,3.81,0,0,0,3.67,1.18c0-2.59,1.61-5,1.6-7.57a11.23,11.23,0,0,0-1.81-5.28A12,12,0,0,0,134,282.21Z" transform="translate(24.32)"/><path class="cls-25" d="M117.73,280.1a13.46,13.46,0,0,0,3.46.45,6.89,6.89,0,0,0,2.46-.43,11.91,11.91,0,0,0,2.56-2.4,7.46,7.46,0,0,0,.41-1.93.56.56,0,0,0,.13.77.38.38,0,0,0,.17.08,13.52,13.52,0,0,0,3.28,1,7.75,7.75,0,0,0,1.67-.26,1.65,1.65,0,0,0,.75,1.23,9.56,9.56,0,0,0,2.9,1.15,4.08,4.08,0,0,0,2-.48c.26-.23-.93-.7-1.26-1.07a20.88,20.88,0,0,1-1.57-1.65c-.57-.74-.78-1.38-1.23-1.82a3.24,3.24,0,0,0-2.15-1c-1.2-.15-2.54-.23-3.65-.49s-2.31-.7-2.76-.37a23.48,23.48,0,0,0-2.57,2.2,25,25,0,0,1-3,3.09c-.71.44-1.34.56-1.56,1A1,1,0,0,0,117.73,280.1Z" transform="translate(24.32)"/><path class="cls-25" d="M123.37,285.3a33.16,33.16,0,0,0,4.21,2.51,10,10,0,0,0,2.26.61h1.23a6.09,6.09,0,0,0,.78,1.79,17.93,17.93,0,0,0,2.18,1.4,2.29,2.29,0,0,1,.73,2.06,16,16,0,0,1-1.23,3,7,7,0,0,0,1.28.89c.34.12,1.57-.16,1.68-.5a5,5,0,0,0,.28-1.39c0-.45.8-2.52.76-3.63a4.74,4.74,0,0,0-.71-2.91c-.61-.78-1.34-1.67-2.18-2.62s-1.45-2-2.68-2-4.24.34-5.52.34-3.41-.61-3.63-.34S123.37,285.3,123.37,285.3Z" transform="translate(24.32)"/><path class="cls-25" d="M124.43,291a19.53,19.53,0,0,0,2.12,2.73,35.17,35.17,0,0,1,3.29,2.23c.45.5,2.35,3.69,2.35,3.69s.89-3.19,1-3.74-.11-1.79-.67-1.9a16.69,16.69,0,0,1-3.35-.73,32.89,32.89,0,0,1-3.24-1.39Z" transform="translate(24.32)"/><path class="cls-25" d="M122,307.17a4.86,4.86,0,0,0,4,.21,10.8,10.8,0,0,0,3.71-2.22,8.19,8.19,0,0,0,1.79-2.42c.22-.44-.45-.8-1-1.19s-2.3-1.23-2.88-.34-.66-.29-.62-.4a8,8,0,0,0-1-2c-.28-.27-1.79-2.68-1.79-2.68a13.75,13.75,0,0,0-3,.23c-.11.22-2,.61-2.23,1.14s-.22,2.49-.39,2.6-5.64,2.23-5.92,2.4-4.91,2.29-5.53,2.74a20.59,20.59,0,0,0-2.51,3.51c-.28.51-3.13.73-3.29,1.06s.33,1.79-.9,2S81,326.44,79.7,327.22s-9.72,6.14-11.62,7-39.22,10-40.56,10.55c-.3.12-.82,4.81,1.35,6.83,1.25,1.15,1.73,2.76,2.94,3.76s5-1,5.33-1a48.31,48.31,0,0,0,8.42-.19,60,60,0,0,0,25-8c4.94-3.08,14.31-12.49,16.76-14.28s14.7-13.18,17.87-15.55c.06,0,.14.23,1.25-.12.43-.13,1.73-.82,2.85-1.19a10.32,10.32,0,0,1,2.82-.34c1.91-.12,3.31.1,5.64-2.05A57.29,57.29,0,0,0,122,307.17Z" transform="translate(24.32)"/><path class="cls-43" d="M45.86,322.35c-3.93.8-11.32,6-13.1,9.23s-5.66,12.8-5.36,14.89,3.54,7.74,0,8-7.43-3-9.81-2.38-5.66.3-6.26-2.09,6-15.78,8-20,6.26-12.8,10.73-13.7,11-3,15.78-2.08,4.07.51,4,1.55-.29,2.91.38,3.51.15,3.39-1,3.47S47.69,322,45.86,322.35Z" transform="translate(24.32)"/><path class="cls-40" d="M512.52,353.39s3-.72,2.71-2.8S500,242.49,499.15,240.1s-6.56-8.63-11.62-9.23-12.21,0-14,3-9,4.17-7.44,20.7,10.65,68.66,10.65,68.66l15.76,7.28s8.66,9.6,9.1,11.16a47.93,47.93,0,0,0,3.58,7.6C505.8,350.14,512.52,353.39,512.52,353.39Z" transform="translate(24.32)"/><path class="cls-47" d="M479.14,330.64c3.93.79,11.32,5.95,13.11,9.23s5.65,12.8,5.36,14.89-3.54,7.74,0,8,7.43-3,9.81-2.38,5.66.29,6.26-2.09-6-15.78-8-20-6.26-12.81-10.72-13.7-11-3-15.79-2.08-4.07.51-4,1.55.29,2.91-.38,3.51-.14,3.39,1,3.47S477.32,330.3,479.14,330.64Z" transform="translate(24.32)"/><rect class="cls-57" x="342.29" y="237.17" width="57.18" height="87.76" rx="2.39" transform="translate(-8.99 50.46) rotate(-7.45)"/><rect class="cls-50" x="342.67" y="237.5" width="56.27" height="86.89" rx="2.36" transform="translate(-8.98 50.45) rotate(-7.45)"/><path class="cls-51" d="M394.06,238.57l-1.41.18-.22-1.69a1.45,1.45,0,0,0-1.62-1.25h0l-51.28,6.7a1.08,1.08,0,0,0-.93,1.2h0l.18,1.42a.64.64,0,0,1-.54.73h0l-1,.14-.09-.7.89-.12-.21-1.56a1.61,1.61,0,0,1,1.38-1.79L391.42,235a1.47,1.47,0,0,1,1.63,1.25l.21,1.67.69-.09Z" transform="translate(24.32)"/><rect class="cls-52" x="387.52" y="238.44" width="3.63" height="8.25" rx="1.81" transform="translate(-3.84 52.53) rotate(-7.45)"/><path class="cls-53" d="M387.21,240.57l.6,4.58a1.82,1.82,0,1,0,3.64-.21c0-.08,0-.17,0-.26l-.6-4.58a1.82,1.82,0,0,0-3.6.47Zm.12.12a1.71,1.71,0,0,1,3.4-.44l.56,4.32a1.71,1.71,0,0,1-3.37.55s0-.07,0-.11Z" transform="translate(24.32)"/><circle class="cls-58" cx="413.42" cy="240.98" r="0.92"/><circle class="cls-55" cx="413.42" cy="240.98" r="0.77"/><circle class="cls-53" cx="413.41" cy="240.96" r="0.68"/><circle class="cls-55" cx="413.41" cy="240.96" r="0.58"/><circle class="cls-53" cx="413.41" cy="240.96" r="0.54"/><circle class="cls-52" cx="413.41" cy="240.96" r="0.34"/><circle class="cls-59" cx="413.78" cy="243.76" r="0.92"/><circle class="cls-55" cx="413.78" cy="243.76" r="0.77"/><circle class="cls-53" cx="413.78" cy="243.74" r="0.68"/><circle class="cls-55" cx="413.78" cy="243.74" r="0.58"/><circle class="cls-53" cx="413.78" cy="243.74" r="0.54"/><circle class="cls-52" cx="413.78" cy="243.74" r="0.34"/><path class="cls-20" d="M391,290.5c2.66-2.46,6.73-2.35,10.34-2.09a11.2,11.2,0,0,1-2.85-3.82,8.13,8.13,0,0,1-5.68,1.1,4.23,4.23,0,0,1-5.42,1.58,1,1,0,0,1-.62-.68,1.2,1.2,0,0,1,.31-.8c1.83-2.56,3.84-5.26,6.81-6.3a15.11,15.11,0,0,1,4-.63,6.53,6.53,0,0,1,6.57,2.53l6.71,6.81a15.77,15.77,0,0,1,1.75,2,16.65,16.65,0,0,1,1.55,2.88c3,6.67,6.09,13.73,11.95,18.1l4.91,2.11a127.61,127.61,0,0,1,12.36,5.95c5.8,3.28,19.95,6.56,24.27,7.9a29.47,29.47,0,0,1,7.89,4,5.94,5.94,0,0,1,3.25-1.83c2.46-.67,6,.34,9.27,1.68s6,5.81,8.71,9.49,3.69,13.18,3.8,14.29-4.77,5.18-4.77,5.18-2.49,3.31-2.93,3.76-4-.11-5-.88-7.59,2.67-31.06-6.68c-2.5-1-14.3-11.46-17.87-14.59s-19.32-17-19.32-17c-1.26.21-2.39-.71-3.57-1.16-2.17-.83-4.71-.15-6.85-1a10.11,10.11,0,0,1-3.91-3.63l-2.5-3.32a5.76,5.76,0,0,1-5.13-.24,9.44,9.44,0,0,1-4-3.51,12.85,12.85,0,0,1-1.67-6.5,3.77,3.77,0,0,1-3.66,1.19c0-2.59-1.62-5-1.61-7.57a11.5,11.5,0,0,1,1.81-5.28A12.27,12.27,0,0,1,391,290.5Z" transform="translate(24.32)"/><path class="cls-42" d="M407.28,288.39a13.54,13.54,0,0,1-3.47.45,6.89,6.89,0,0,1-2.46-.43,12.39,12.39,0,0,1-2.56-2.4,7.45,7.45,0,0,1-.41-1.94.56.56,0,0,1-.13.78.38.38,0,0,1-.17.08,13.31,13.31,0,0,1-3.27,1,7.94,7.94,0,0,1-1.68-.26,1.59,1.59,0,0,1-.74,1.23,9.51,9.51,0,0,1-2.91,1.15,4.13,4.13,0,0,1-2-.48c-.26-.23.93-.7,1.27-1.08a18.91,18.91,0,0,0,1.56-1.64c.56-.74.78-1.38,1.23-1.83a3.29,3.29,0,0,1,2.16-1c1.19-.15,2.53-.23,3.64-.49s2.31-.7,2.76-.37a23.48,23.48,0,0,1,2.57,2.2,26.55,26.55,0,0,0,3,3.09c.71.44,1.34.55,1.57,1A1,1,0,0,1,407.28,288.39Z" transform="translate(24.32)"/><path class="cls-42" d="M401.64,293.58a32.66,32.66,0,0,1-4.22,2.52,9.81,9.81,0,0,1-2.26.61h-1.23a5.84,5.84,0,0,1-.78,1.79,17.11,17.11,0,0,1-2.18,1.39,2.34,2.34,0,0,0-.72,2.07,17,17,0,0,0,1.22,3,7.06,7.06,0,0,1-1.27.89c-.35.11-1.57-.16-1.69-.5a5.51,5.51,0,0,1-.27-1.4,27.72,27.72,0,0,1-.72-3.65,4.81,4.81,0,0,1,.71-2.91c.61-.78,1.34-1.67,2.18-2.62s1.45-2,2.68-2,4.24.34,5.53.34,3.4-.62,3.63-.34S401.64,293.58,401.64,293.58Z" transform="translate(24.32)"/><path class="cls-42" d="M400.58,299.3a18.28,18.28,0,0,1-2.13,2.74c-1.13.69-2.23,1.43-3.29,2.23-.45.5-2.35,3.68-2.35,3.68s-.89-3.18-.94-3.74.11-1.78.67-1.89a17.41,17.41,0,0,0,3.35-.73,29.71,29.71,0,0,0,3.23-1.4Z" transform="translate(24.32)"/><path class="cls-42" d="M403,315.46a4.86,4.86,0,0,1-4,.21,10.89,10.89,0,0,1-3.71-2.22,8.55,8.55,0,0,1-1.79-2.42c-.22-.45.45-.81,1-1.2s2.29-1.23,2.87-.33.66-.29.62-.4a8,8,0,0,1,1-2c.28-.28,1.79-2.68,1.79-2.68a13.7,13.7,0,0,1,3,.23c.11.22,2,.6,2.23,1.14s.23,2.49.39,2.6,5.64,2.23,5.92,2.4,4.92,2.29,5.53,2.73a21.07,21.07,0,0,1,2.51,3.52c.28.5,3.13.73,3.3,1.06s-.34,1.79.89,2S444,334.78,445.3,335.56s9.71,6.14,11.61,7,39.22,10,40.56,10.56c.3.12.82,4.81-1.35,6.83-1.25,1.15-1.72,2.76-2.93,3.76s-5.06-1-5.33-1a48.45,48.45,0,0,1-8.43-.19,59.86,59.86,0,0,1-24.88-8.09c-4.94-3.09-14.31-12.49-16.77-14.28S423.08,327,419.91,324.6c-.06,0-.14.23-1.25-.12-.43-.13-1.73-.82-2.85-1.19a10.33,10.33,0,0,0-2.82-.35c-1.91-.11-3.31.11-5.64-2A61.93,61.93,0,0,1,403,315.46Z" transform="translate(24.32)"/></svg>